<svg width="253" height="296" viewBox="0 0 253 296" fill="none" xmlns="http://www.w3.org/2000/svg">
<path d="M5.56878 273.573C28.0656 275.73 29.9832 255.733 52.48 257.89C74.9768 260.047 92.235 80.0728 114.732 82.2301C137.229 84.3874 138.427 71.8892 160.924 74.0465C183.421 76.2038 181.743 93.7013 204.24 95.8585C226.736 98.0158 229.613 68.0201 252.11 70.1774" stroke="url(#paint0_linear_137_254)"/>
<g filter="url(#filter0_f_137_254)">
<circle cx="113.23" cy="83.4297" r="7.90224" transform="rotate(5.47751 113.23 83.4297)" fill="#E4DBFF"/>
</g>
<circle cx="113.23" cy="83.4297" r="3.44691" transform="rotate(5.47751 113.23 83.4297)" fill="#625999"/>
<g filter="url(#filter1_d_137_254)">
<rect x="119.509" y="110" width="78.5" height="45.5" rx="5" fill="white" shape-rendering="crispEdges"/>
<path opacity="0.6" d="M127.549 122.866C126.994 122.866 126.526 122.744 126.145 122.499C125.763 122.251 125.474 121.909 125.278 121.474C125.082 121.038 124.984 120.535 124.984 119.965C124.984 119.396 125.082 118.893 125.278 118.457C125.474 118.021 125.763 117.681 126.145 117.436C126.526 117.188 126.994 117.065 127.549 117.065C128.196 117.065 128.724 117.231 129.134 117.564C129.544 117.894 129.825 118.337 129.978 118.894L129.397 119.045C129.279 118.604 129.066 118.255 128.759 117.997C128.452 117.739 128.049 117.61 127.549 117.61C127.113 117.61 126.751 117.709 126.462 117.908C126.173 118.106 125.955 118.384 125.808 118.739C125.664 119.093 125.589 119.501 125.584 119.965C125.581 120.429 125.652 120.838 125.797 121.191C125.944 121.545 126.163 121.822 126.454 122.023C126.748 122.221 127.113 122.321 127.549 122.321C128.049 122.321 128.452 122.192 128.759 121.934C129.066 121.674 129.279 121.324 129.397 120.886L129.978 121.037C129.825 121.594 129.544 122.038 129.134 122.371C128.724 122.701 128.196 122.866 127.549 122.866ZM132.312 122.75V117.726H130.367V117.181H134.826V117.726H132.881V122.75H132.312ZM135.446 122.75V117.181H137.597C137.651 117.181 137.711 117.183 137.778 117.188C137.848 117.191 137.918 117.199 137.987 117.212C138.279 117.255 138.525 117.357 138.726 117.517C138.93 117.674 139.083 117.873 139.186 118.113C139.292 118.353 139.345 118.618 139.345 118.91C139.345 119.33 139.234 119.695 139.012 120.004C138.79 120.313 138.473 120.508 138.061 120.588L137.864 120.634H136.015V122.75H135.446ZM138.819 122.75L137.72 120.484L138.266 120.275L139.472 122.75H138.819ZM136.015 120.093H137.581C137.628 120.093 137.682 120.09 137.744 120.085C137.806 120.08 137.866 120.071 137.925 120.058C138.116 120.017 138.272 119.938 138.393 119.822C138.517 119.706 138.609 119.568 138.668 119.408C138.73 119.249 138.761 119.082 138.761 118.91C138.761 118.737 138.73 118.57 138.668 118.411C138.609 118.248 138.517 118.109 138.393 117.993C138.272 117.877 138.116 117.798 137.925 117.757C137.866 117.744 137.806 117.736 137.744 117.734C137.682 117.729 137.628 117.726 137.581 117.726H136.015V120.093Z" fill="#342D53"/>
<path opacity="0.6" d="M157.691 119.75V119.082H156.078V118.747L157.231 116.304H157.626L156.473 118.747H157.691V117.742H158.045V118.747H158.421V119.082H158.045V119.75H157.691ZM159.332 119.75L159.093 119.511L162.307 116.304L162.546 116.541L159.332 119.75ZM161.828 119.822C161.67 119.822 161.526 119.784 161.395 119.707C161.266 119.629 161.162 119.525 161.084 119.396C161.006 119.265 160.966 119.12 160.966 118.96C160.966 118.804 161.006 118.66 161.086 118.529C161.166 118.399 161.271 118.294 161.402 118.216C161.533 118.138 161.675 118.099 161.828 118.099C161.986 118.099 162.13 118.138 162.261 118.216C162.392 118.293 162.496 118.396 162.572 118.527C162.65 118.656 162.69 118.801 162.69 118.96C162.69 119.12 162.65 119.265 162.572 119.396C162.496 119.525 162.392 119.629 162.261 119.707C162.13 119.784 161.986 119.822 161.828 119.822ZM161.828 119.504C161.925 119.504 162.015 119.479 162.098 119.429C162.181 119.38 162.248 119.314 162.297 119.233C162.347 119.15 162.371 119.059 162.371 118.96C162.371 118.861 162.347 118.771 162.297 118.69C162.248 118.607 162.181 118.541 162.098 118.491C162.015 118.442 161.925 118.417 161.828 118.417C161.729 118.417 161.638 118.442 161.555 118.491C161.474 118.541 161.408 118.607 161.357 118.69C161.307 118.771 161.282 118.861 161.282 118.96C161.282 119.059 161.307 119.15 161.357 119.233C161.408 119.314 161.474 119.38 161.555 119.429C161.638 119.479 161.729 119.504 161.828 119.504ZM159.811 117.955C159.653 117.955 159.508 117.917 159.377 117.84C159.246 117.762 159.142 117.658 159.064 117.529C158.987 117.398 158.949 117.253 158.949 117.094C158.949 116.937 158.989 116.794 159.069 116.663C159.148 116.532 159.254 116.427 159.385 116.349C159.515 116.271 159.657 116.232 159.811 116.232C159.968 116.232 160.112 116.271 160.241 116.349C160.372 116.426 160.477 116.529 160.555 116.66C160.633 116.79 160.672 116.934 160.672 117.094C160.672 117.253 160.633 117.398 160.555 117.529C160.477 117.658 160.372 117.762 160.241 117.84C160.112 117.917 159.968 117.955 159.811 117.955ZM159.811 117.637C159.909 117.637 160 117.612 160.081 117.563C160.164 117.513 160.23 117.448 160.28 117.366C160.329 117.283 160.354 117.192 160.354 117.094C160.354 116.995 160.329 116.904 160.28 116.823C160.23 116.74 160.164 116.674 160.081 116.624C160 116.575 159.909 116.55 159.811 116.55C159.712 116.55 159.621 116.575 159.538 116.624C159.456 116.674 159.391 116.74 159.341 116.823C159.292 116.904 159.267 116.995 159.267 117.094C159.267 117.192 159.292 117.283 159.341 117.366C159.391 117.448 159.456 117.513 159.538 117.563C159.621 117.612 159.712 117.637 159.811 117.637ZM165.349 119.822C165.092 119.822 164.873 119.764 164.691 119.647C164.509 119.531 164.369 119.369 164.272 119.164C164.175 118.958 164.126 118.722 164.126 118.455C164.126 118.184 164.175 117.946 164.274 117.742C164.373 117.538 164.514 117.379 164.695 117.266C164.879 117.151 165.097 117.094 165.349 117.094C165.607 117.094 165.827 117.152 166.009 117.268C166.193 117.383 166.332 117.543 166.428 117.749C166.525 117.953 166.574 118.189 166.574 118.455C166.574 118.726 166.525 118.965 166.428 119.171C166.331 119.375 166.19 119.535 166.007 119.649C165.823 119.764 165.604 119.822 165.349 119.822ZM165.349 119.484C165.636 119.484 165.85 119.389 165.99 119.2C166.131 119.008 166.201 118.76 166.201 118.455C166.201 118.143 166.13 117.894 165.988 117.709C165.847 117.523 165.634 117.431 165.349 117.431C165.156 117.431 164.996 117.475 164.87 117.563C164.746 117.649 164.652 117.769 164.59 117.924C164.53 118.077 164.499 118.254 164.499 118.455C164.499 118.766 164.571 119.016 164.715 119.204C164.858 119.391 165.07 119.484 165.349 119.484ZM167.707 119.75L166.769 117.165H167.126L167.889 119.291L168.648 117.165H169.009L168.071 119.75H167.707ZM170.439 119.822C170.187 119.822 169.969 119.766 169.784 119.654C169.6 119.543 169.457 119.385 169.355 119.183C169.253 118.98 169.202 118.742 169.202 118.47C169.202 118.187 169.252 117.943 169.353 117.737C169.453 117.531 169.595 117.373 169.777 117.261C169.96 117.149 170.176 117.094 170.425 117.094C170.68 117.094 170.898 117.153 171.078 117.271C171.259 117.387 171.395 117.555 171.488 117.773C171.58 117.992 171.623 118.253 171.615 118.556H171.256V118.431C171.249 118.096 171.177 117.843 171.038 117.673C170.901 117.502 170.7 117.417 170.435 117.417C170.157 117.417 169.944 117.507 169.796 117.687C169.649 117.867 169.576 118.124 169.576 118.458C169.576 118.783 169.649 119.036 169.796 119.216C169.944 119.395 170.154 119.484 170.425 119.484C170.61 119.484 170.771 119.442 170.909 119.358C171.047 119.271 171.157 119.148 171.236 118.987L171.564 119.113C171.462 119.338 171.311 119.513 171.112 119.638C170.914 119.76 170.69 119.822 170.439 119.822ZM169.451 118.556V118.261H171.425V118.556H169.451ZM172.146 119.75V117.165H172.462V117.788L172.399 117.706C172.428 117.63 172.466 117.559 172.512 117.496C172.558 117.43 172.608 117.377 172.663 117.335C172.73 117.276 172.808 117.232 172.897 117.201C172.987 117.169 173.077 117.151 173.168 117.146C173.259 117.14 173.342 117.146 173.416 117.165V117.496C173.322 117.472 173.219 117.466 173.108 117.479C172.996 117.492 172.893 117.536 172.799 117.613C172.713 117.68 172.648 117.76 172.605 117.855C172.562 117.947 172.533 118.046 172.519 118.151C172.505 118.255 172.497 118.358 172.497 118.46V119.75H172.146ZM174.877 116.675V116.28H175.228V116.675H174.877ZM174.877 119.75V117.165H175.228V119.75H174.877ZM177.813 119.75V118.431C177.813 118.288 177.799 118.156 177.772 118.036C177.745 117.915 177.701 117.81 177.64 117.721C177.581 117.63 177.504 117.559 177.408 117.51C177.314 117.46 177.199 117.436 177.064 117.436C176.939 117.436 176.829 117.457 176.733 117.5C176.639 117.543 176.559 117.606 176.494 117.687C176.43 117.767 176.381 117.864 176.348 117.979C176.314 118.094 176.298 118.225 176.298 118.372L176.049 118.316C176.049 118.052 176.095 117.829 176.188 117.649C176.28 117.468 176.408 117.332 176.571 117.239C176.733 117.147 176.92 117.101 177.131 117.101C177.285 117.101 177.42 117.125 177.535 117.172C177.651 117.22 177.75 117.285 177.829 117.366C177.911 117.448 177.976 117.541 178.026 117.646C178.075 117.75 178.111 117.861 178.133 117.979C178.156 118.095 178.167 118.212 178.167 118.328V119.75H177.813ZM175.944 119.75V117.165H176.262V117.802H176.298V119.75H175.944ZM179.777 119.822C179.536 119.822 179.33 119.762 179.159 119.642C178.988 119.521 178.858 119.358 178.767 119.152C178.676 118.946 178.63 118.714 178.63 118.455C178.63 118.198 178.675 117.967 178.764 117.761C178.855 117.555 178.985 117.393 179.154 117.273C179.324 117.153 179.526 117.094 179.762 117.094C180.005 117.094 180.209 117.153 180.375 117.271C180.541 117.389 180.666 117.551 180.751 117.756C180.837 117.961 180.88 118.194 180.88 118.455C180.88 118.712 180.838 118.944 180.753 119.152C180.669 119.358 180.544 119.521 180.38 119.642C180.215 119.762 180.014 119.822 179.777 119.822ZM179.813 119.494C179.996 119.494 180.148 119.449 180.267 119.36C180.387 119.271 180.476 119.148 180.535 118.991C180.594 118.833 180.624 118.655 180.624 118.455C180.624 118.253 180.594 118.074 180.535 117.919C180.476 117.763 180.387 117.641 180.267 117.553C180.149 117.465 180 117.421 179.82 117.421C179.635 117.421 179.481 117.467 179.36 117.558C179.239 117.649 179.149 117.772 179.09 117.929C179.032 118.085 179.004 118.261 179.004 118.455C179.004 118.652 179.033 118.829 179.092 118.987C179.153 119.143 179.243 119.267 179.363 119.358C179.482 119.448 179.632 119.494 179.813 119.494ZM180.624 119.75V117.804H180.586V116.304H180.94V119.75H180.624ZM182.6 119.815C182.445 119.815 182.309 119.791 182.193 119.743C182.078 119.695 181.98 119.63 181.898 119.549C181.819 119.468 181.754 119.375 181.705 119.271C181.655 119.166 181.619 119.055 181.597 118.939C181.574 118.821 181.563 118.703 181.563 118.587V117.165H181.918V118.484C181.918 118.626 181.931 118.758 181.958 118.879C181.985 119 182.028 119.106 182.087 119.197C182.148 119.287 182.225 119.356 182.32 119.405C182.415 119.455 182.531 119.48 182.667 119.48C182.791 119.48 182.9 119.458 182.994 119.415C183.09 119.372 183.17 119.31 183.234 119.231C183.299 119.149 183.349 119.051 183.382 118.936C183.416 118.82 183.432 118.689 183.432 118.544L183.681 118.599C183.681 118.864 183.635 119.086 183.543 119.267C183.45 119.447 183.322 119.583 183.16 119.676C182.997 119.768 182.81 119.815 182.6 119.815ZM183.468 119.75V119.113H183.432V117.165H183.784V119.75H183.468ZM185.418 119.819C185.115 119.819 184.865 119.754 184.669 119.623C184.474 119.492 184.354 119.31 184.31 119.078L184.669 119.018C184.707 119.164 184.794 119.282 184.929 119.369C185.067 119.456 185.236 119.499 185.437 119.499C185.633 119.499 185.788 119.458 185.901 119.377C186.014 119.294 186.071 119.181 186.071 119.039C186.071 118.959 186.053 118.895 186.016 118.845C185.981 118.794 185.908 118.747 185.798 118.704C185.688 118.661 185.524 118.61 185.305 118.551C185.071 118.487 184.887 118.423 184.755 118.36C184.622 118.296 184.528 118.222 184.472 118.139C184.416 118.055 184.389 117.952 184.389 117.831C184.389 117.684 184.43 117.555 184.513 117.445C184.596 117.334 184.711 117.247 184.858 117.187C185.004 117.125 185.175 117.094 185.37 117.094C185.564 117.094 185.738 117.125 185.892 117.189C186.046 117.251 186.171 117.339 186.265 117.452C186.359 117.566 186.415 117.697 186.432 117.847L186.073 117.912C186.049 117.76 185.974 117.641 185.846 117.553C185.72 117.464 185.56 117.417 185.365 117.414C185.182 117.409 185.032 117.445 184.917 117.52C184.803 117.593 184.745 117.691 184.745 117.814C184.745 117.882 184.766 117.942 184.807 117.991C184.849 118.039 184.924 118.084 185.032 118.127C185.142 118.17 185.299 118.218 185.501 118.269C185.739 118.329 185.926 118.393 186.061 118.46C186.197 118.527 186.294 118.606 186.351 118.697C186.408 118.788 186.437 118.9 186.437 119.034C186.437 119.279 186.346 119.471 186.164 119.611C185.984 119.75 185.735 119.819 185.418 119.819ZM188.375 119.75C188.23 119.78 188.086 119.792 187.944 119.786C187.804 119.78 187.678 119.749 187.566 119.695C187.456 119.641 187.372 119.556 187.315 119.441C187.269 119.346 187.243 119.249 187.238 119.152C187.235 119.053 187.234 118.94 187.234 118.814V116.447H187.583V118.8C187.583 118.908 187.584 118.999 187.585 119.073C187.589 119.145 187.605 119.208 187.636 119.264C187.693 119.371 187.784 119.435 187.909 119.456C188.035 119.476 188.19 119.472 188.375 119.441V119.75ZM186.681 117.467V117.165H188.375V117.467H186.681ZM188.884 119.75V117.165H189.2V117.788L189.138 117.706C189.167 117.63 189.204 117.559 189.251 117.496C189.297 117.43 189.347 117.377 189.401 117.335C189.468 117.276 189.547 117.232 189.636 117.201C189.725 117.169 189.815 117.151 189.906 117.146C189.997 117.14 190.08 117.146 190.155 117.165V117.496C190.061 117.472 189.958 117.466 189.847 117.479C189.735 117.492 189.632 117.536 189.538 117.613C189.452 117.68 189.387 117.76 189.344 117.855C189.301 117.947 189.272 118.046 189.258 118.151C189.243 118.255 189.236 118.358 189.236 118.46V119.75H188.884ZM190.945 120.899L191.445 119.542L191.452 119.944L190.32 117.165H190.694L191.622 119.489H191.469L192.326 117.165H192.685L191.297 120.899H190.945ZM171.619 126.819C171.316 126.819 171.066 126.754 170.87 126.623C170.675 126.492 170.556 126.31 170.511 126.078L170.87 126.018C170.908 126.164 170.995 126.282 171.131 126.369C171.268 126.456 171.437 126.499 171.638 126.499C171.834 126.499 171.989 126.458 172.102 126.377C172.216 126.294 172.272 126.181 172.272 126.039C172.272 125.959 172.254 125.895 172.217 125.845C172.182 125.794 172.11 125.747 172 125.704C171.889 125.661 171.725 125.61 171.507 125.551C171.272 125.487 171.089 125.423 170.956 125.36C170.824 125.296 170.73 125.222 170.674 125.139C170.618 125.055 170.59 124.952 170.59 124.831C170.59 124.684 170.631 124.555 170.714 124.445C170.797 124.334 170.912 124.247 171.059 124.187C171.206 124.125 171.377 124.094 171.571 124.094C171.766 124.094 171.94 124.125 172.093 124.189C172.248 124.251 172.372 124.339 172.466 124.452C172.56 124.566 172.616 124.697 172.634 124.847L172.275 124.912C172.251 124.76 172.175 124.641 172.047 124.553C171.921 124.464 171.761 124.417 171.566 124.414C171.383 124.409 171.234 124.445 171.119 124.52C171.004 124.593 170.947 124.691 170.947 124.814C170.947 124.882 170.967 124.942 171.009 124.991C171.05 125.039 171.125 125.084 171.234 125.127C171.344 125.17 171.5 125.218 171.703 125.269C171.941 125.329 172.127 125.393 172.263 125.46C172.398 125.527 172.495 125.606 172.552 125.697C172.61 125.788 172.639 125.9 172.639 126.034C172.639 126.279 172.548 126.471 172.366 126.611C172.185 126.75 171.937 126.819 171.619 126.819ZM174.577 126.75C174.431 126.78 174.288 126.792 174.146 126.786C174.005 126.78 173.879 126.749 173.768 126.695C173.658 126.641 173.574 126.556 173.516 126.441C173.47 126.346 173.445 126.249 173.44 126.152C173.437 126.053 173.435 125.94 173.435 125.814V123.447H173.784V125.8C173.784 125.908 173.785 125.999 173.787 126.073C173.79 126.145 173.807 126.208 173.837 126.264C173.895 126.371 173.985 126.435 174.11 126.456C174.236 126.476 174.392 126.472 174.577 126.441V126.75ZM172.882 124.467V124.165H174.577V124.467H172.882ZM175.825 126.822C175.631 126.822 175.467 126.787 175.335 126.717C175.204 126.646 175.106 126.553 175.04 126.436C174.975 126.32 174.942 126.193 174.942 126.056C174.942 125.916 174.97 125.796 175.026 125.697C175.083 125.596 175.161 125.514 175.258 125.45C175.357 125.387 175.471 125.338 175.6 125.304C175.731 125.273 175.876 125.245 176.034 125.221C176.193 125.195 176.349 125.174 176.5 125.156C176.653 125.137 176.787 125.119 176.902 125.101L176.778 125.178C176.783 124.922 176.733 124.733 176.629 124.61C176.526 124.488 176.345 124.426 176.089 124.426C175.912 124.426 175.762 124.466 175.639 124.546C175.517 124.626 175.432 124.752 175.383 124.924L175.04 124.823C175.099 124.592 175.218 124.413 175.397 124.285C175.576 124.157 175.808 124.094 176.093 124.094C176.33 124.094 176.53 124.138 176.694 124.228C176.86 124.315 176.977 124.443 177.046 124.61C177.078 124.685 177.099 124.769 177.108 124.862C177.118 124.954 177.122 125.048 177.122 125.144V126.75H176.809V126.101L176.9 126.14C176.812 126.362 176.676 126.531 176.491 126.647C176.306 126.764 176.084 126.822 175.825 126.822ZM175.866 126.518C176.03 126.518 176.174 126.488 176.297 126.429C176.42 126.37 176.519 126.29 176.594 126.188C176.669 126.084 176.717 125.967 176.74 125.838C176.759 125.755 176.769 125.664 176.771 125.565C176.772 125.465 176.773 125.39 176.773 125.34L176.907 125.41C176.787 125.426 176.657 125.442 176.517 125.458C176.378 125.474 176.241 125.492 176.105 125.513C175.971 125.533 175.85 125.558 175.742 125.587C175.668 125.608 175.597 125.637 175.529 125.675C175.46 125.712 175.403 125.762 175.359 125.824C175.316 125.886 175.294 125.963 175.294 126.056C175.294 126.131 175.312 126.204 175.349 126.274C175.387 126.344 175.448 126.402 175.531 126.448C175.616 126.495 175.727 126.518 175.866 126.518ZM179.612 126.75V125.431C179.612 125.288 179.599 125.156 179.572 125.036C179.544 124.915 179.501 124.81 179.44 124.721C179.381 124.63 179.304 124.559 179.208 124.51C179.114 124.46 178.999 124.436 178.863 124.436C178.739 124.436 178.629 124.457 178.533 124.5C178.439 124.543 178.359 124.606 178.294 124.687C178.23 124.767 178.181 124.864 178.148 124.979C178.114 125.094 178.097 125.225 178.097 125.372L177.848 125.316C177.848 125.052 177.895 124.829 177.987 124.649C178.08 124.468 178.207 124.332 178.37 124.239C178.533 124.147 178.72 124.101 178.93 124.101C179.085 124.101 179.22 124.125 179.335 124.172C179.451 124.22 179.549 124.285 179.629 124.366C179.71 124.448 179.776 124.541 179.825 124.646C179.875 124.75 179.911 124.861 179.933 124.979C179.955 125.095 179.966 125.212 179.966 125.328V126.75H179.612ZM177.743 126.75V124.165H178.061V124.802H178.097V126.75H177.743ZM181.576 126.822C181.335 126.822 181.13 126.762 180.959 126.642C180.788 126.521 180.657 126.358 180.566 126.152C180.475 125.946 180.43 125.714 180.43 125.455C180.43 125.198 180.475 124.967 180.564 124.761C180.655 124.555 180.785 124.393 180.954 124.273C181.123 124.153 181.326 124.094 181.562 124.094C181.804 124.094 182.009 124.153 182.175 124.271C182.341 124.389 182.466 124.551 182.55 124.756C182.636 124.961 182.68 125.194 182.68 125.455C182.68 125.712 182.637 125.944 182.553 126.152C182.468 126.358 182.344 126.521 182.179 126.642C182.015 126.762 181.814 126.822 181.576 126.822ZM181.612 126.494C181.796 126.494 181.947 126.449 182.067 126.36C182.187 126.271 182.276 126.148 182.335 125.991C182.394 125.833 182.423 125.655 182.423 125.455C182.423 125.253 182.394 125.074 182.335 124.919C182.276 124.763 182.187 124.641 182.067 124.553C181.949 124.465 181.8 124.421 181.619 124.421C181.434 124.421 181.281 124.467 181.16 124.558C181.039 124.649 180.948 124.772 180.889 124.929C180.832 125.085 180.803 125.261 180.803 125.455C180.803 125.652 180.833 125.829 180.892 125.987C180.952 126.143 181.043 126.267 181.162 126.358C181.282 126.448 181.432 126.494 181.612 126.494ZM182.423 126.75V124.804H182.385V123.304H182.739V126.75H182.423ZM184.15 126.822C183.956 126.822 183.792 126.787 183.66 126.717C183.529 126.646 183.431 126.553 183.365 126.436C183.3 126.32 183.267 126.193 183.267 126.056C183.267 125.916 183.295 125.796 183.351 125.697C183.408 125.596 183.486 125.514 183.583 125.45C183.682 125.387 183.796 125.338 183.925 125.304C184.056 125.273 184.201 125.245 184.359 125.221C184.518 125.195 184.674 125.174 184.825 125.156C184.978 125.137 185.112 125.119 185.227 125.101L185.103 125.178C185.108 124.922 185.058 124.733 184.954 124.61C184.851 124.488 184.67 124.426 184.414 124.426C184.236 124.426 184.086 124.466 183.964 124.546C183.842 124.626 183.757 124.752 183.708 124.924L183.365 124.823C183.424 124.592 183.543 124.413 183.722 124.285C183.901 124.157 184.133 124.094 184.418 124.094C184.654 124.094 184.855 124.138 185.019 124.228C185.185 124.315 185.302 124.443 185.371 124.61C185.403 124.685 185.424 124.769 185.433 124.862C185.443 124.954 185.447 125.048 185.447 125.144V126.75H185.134V126.101L185.225 126.14C185.137 126.362 185.001 126.531 184.816 126.647C184.631 126.764 184.409 126.822 184.15 126.822ZM184.191 126.518C184.355 126.518 184.499 126.488 184.622 126.429C184.745 126.37 184.844 126.29 184.919 126.188C184.994 126.084 185.042 125.967 185.065 125.838C185.084 125.755 185.094 125.664 185.096 125.565C185.097 125.465 185.098 125.39 185.098 125.34L185.232 125.41C185.112 125.426 184.982 125.442 184.842 125.458C184.703 125.474 184.566 125.492 184.43 125.513C184.296 125.533 184.175 125.558 184.067 125.587C183.993 125.608 183.922 125.637 183.854 125.675C183.785 125.712 183.728 125.762 183.684 125.824C183.641 125.886 183.619 125.963 183.619 126.056C183.619 126.131 183.637 126.204 183.674 126.274C183.712 126.344 183.773 126.402 183.856 126.448C183.941 126.495 184.052 126.518 184.191 126.518ZM186.07 126.75V124.165H186.386V124.788L186.324 124.706C186.353 124.63 186.39 124.559 186.437 124.496C186.483 124.43 186.533 124.377 186.587 124.335C186.654 124.276 186.733 124.232 186.822 124.201C186.911 124.169 187.001 124.151 187.092 124.146C187.183 124.14 187.266 124.146 187.341 124.165V124.496C187.247 124.472 187.144 124.466 187.033 124.479C186.921 124.492 186.818 124.536 186.724 124.613C186.638 124.68 186.573 124.76 186.53 124.855C186.487 124.947 186.458 125.046 186.444 125.151C186.429 125.255 186.422 125.358 186.422 125.46V126.75H186.07ZM188.751 126.822C188.51 126.822 188.305 126.762 188.134 126.642C187.963 126.521 187.832 126.358 187.741 126.152C187.65 125.946 187.605 125.714 187.605 125.455C187.605 125.198 187.65 124.967 187.739 124.761C187.83 124.555 187.96 124.393 188.129 124.273C188.298 124.153 188.501 124.094 188.737 124.094C188.98 124.094 189.184 124.153 189.35 124.271C189.516 124.389 189.641 124.551 189.725 124.756C189.812 124.961 189.855 125.194 189.855 125.455C189.855 125.712 189.812 125.944 189.728 126.152C189.643 126.358 189.519 126.521 189.354 126.642C189.19 126.762 188.989 126.822 188.751 126.822ZM188.787 126.494C188.971 126.494 189.122 126.449 189.242 126.36C189.362 126.271 189.451 126.148 189.51 125.991C189.569 125.833 189.599 125.655 189.599 125.455C189.599 125.253 189.569 125.074 189.51 124.919C189.451 124.763 189.362 124.641 189.242 124.553C189.124 124.465 188.975 124.421 188.794 124.421C188.609 124.421 188.456 124.467 188.335 124.558C188.214 124.649 188.124 124.772 188.064 124.929C188.007 125.085 187.978 125.261 187.978 125.455C187.978 125.652 188.008 125.829 188.067 125.987C188.128 126.143 188.218 126.267 188.337 126.358C188.457 126.448 188.607 126.494 188.787 126.494ZM189.599 126.75V124.804H189.56V123.304H189.914V126.75H189.599ZM191.55 126.819C191.247 126.819 190.998 126.754 190.801 126.623C190.607 126.492 190.487 126.31 190.442 126.078L190.801 126.018C190.84 126.164 190.927 126.282 191.062 126.369C191.199 126.456 191.368 126.499 191.57 126.499C191.766 126.499 191.921 126.458 192.034 126.377C192.147 126.294 192.204 126.181 192.204 126.039C192.204 125.959 192.185 125.895 192.149 125.845C192.114 125.794 192.041 125.747 191.931 125.704C191.821 125.661 191.656 125.61 191.438 125.551C191.203 125.487 191.02 125.423 190.887 125.36C190.755 125.296 190.661 125.222 190.605 125.139C190.549 125.055 190.521 124.952 190.521 124.831C190.521 124.684 190.563 124.555 190.646 124.445C190.729 124.334 190.844 124.247 190.99 124.187C191.137 124.125 191.308 124.094 191.503 124.094C191.697 124.094 191.871 124.125 192.024 124.189C192.179 124.251 192.303 124.339 192.398 124.452C192.492 124.566 192.548 124.697 192.565 124.847L192.206 124.912C192.182 124.76 192.106 124.641 191.979 124.553C191.853 124.464 191.692 124.417 191.498 124.414C191.314 124.409 191.165 124.445 191.05 124.52C190.935 124.593 190.878 124.691 190.878 124.814C190.878 124.882 190.899 124.942 190.94 124.991C190.982 125.039 191.057 125.084 191.165 125.127C191.275 125.17 191.432 125.218 191.634 125.269C191.872 125.329 192.059 125.393 192.194 125.46C192.33 125.527 192.426 125.606 192.484 125.697C192.541 125.788 192.57 125.9 192.57 126.034C192.57 126.279 192.479 126.471 192.297 126.611C192.117 126.75 191.868 126.819 191.55 126.819Z" fill="#342D53"/>
<path d="M128.952 148.75V135.862L126.214 137.509V135.842L128.952 134.206H130.456V148.75H128.952ZM138.721 149.053C137.812 149.053 137.008 148.871 136.307 148.508C135.614 148.144 135.068 147.636 134.671 146.983C134.281 146.323 134.085 145.552 134.085 144.67C134.085 143.767 134.304 142.966 134.742 142.266C135.18 141.559 135.846 141.024 136.742 140.66L136.721 141.246C135.974 140.97 135.405 140.519 135.015 139.892C134.624 139.266 134.429 138.573 134.429 137.812C134.429 137.004 134.614 136.31 134.984 135.731C135.355 135.145 135.86 134.694 136.499 134.378C137.146 134.061 137.886 133.903 138.721 133.903C139.556 133.903 140.297 134.061 140.943 134.378C141.59 134.694 142.098 135.145 142.468 135.731C142.839 136.31 143.024 137.004 143.024 137.812C143.024 138.573 142.835 139.263 142.458 139.882C142.088 140.502 141.519 140.956 140.751 141.246L140.701 140.66C141.596 141.017 142.266 141.549 142.711 142.256C143.162 142.963 143.387 143.767 143.387 144.67C143.387 145.552 143.189 146.323 142.792 146.983C142.394 147.636 141.846 148.144 141.145 148.508C140.445 148.871 139.637 149.053 138.721 149.053ZM138.721 147.629C139.637 147.629 140.381 147.376 140.953 146.871C141.526 146.36 141.812 145.626 141.812 144.67C141.812 143.7 141.529 142.966 140.963 142.468C140.398 141.963 139.65 141.71 138.721 141.71C137.792 141.71 137.048 141.963 136.489 142.468C135.93 142.966 135.651 143.7 135.651 144.67C135.651 145.626 135.934 146.36 136.499 146.871C137.065 147.376 137.806 147.629 138.721 147.629ZM138.721 140.276C139.529 140.276 140.186 140.071 140.691 139.66C141.196 139.243 141.448 138.626 141.448 137.812C141.448 136.997 141.196 136.388 140.691 135.984C140.186 135.573 139.529 135.368 138.721 135.368C137.913 135.368 137.257 135.573 136.752 135.984C136.253 136.388 136.004 136.997 136.004 137.812C136.004 138.626 136.253 139.243 136.752 139.66C137.257 140.071 137.913 140.276 138.721 140.276ZM147.419 148.75L146.409 147.74L159.973 134.206L160.983 135.206L147.419 148.75ZM157.953 149.053C157.287 149.053 156.677 148.891 156.125 148.568C155.58 148.238 155.142 147.801 154.812 147.255C154.482 146.703 154.317 146.09 154.317 145.417C154.317 144.757 154.486 144.151 154.822 143.599C155.159 143.047 155.603 142.606 156.155 142.276C156.708 141.946 157.307 141.781 157.953 141.781C158.62 141.781 159.229 141.946 159.781 142.276C160.333 142.599 160.771 143.037 161.094 143.589C161.424 144.134 161.589 144.744 161.589 145.417C161.589 146.09 161.424 146.703 161.094 147.255C160.771 147.801 160.333 148.238 159.781 148.568C159.229 148.891 158.62 149.053 157.953 149.053ZM157.953 147.71C158.364 147.71 158.744 147.605 159.095 147.397C159.445 147.188 159.724 146.912 159.933 146.568C160.142 146.218 160.246 145.834 160.246 145.417C160.246 145 160.142 144.619 159.933 144.276C159.724 143.926 159.445 143.646 159.095 143.437C158.744 143.229 158.364 143.124 157.953 143.124C157.536 143.124 157.152 143.229 156.802 143.437C156.458 143.646 156.179 143.926 155.964 144.276C155.755 144.619 155.65 145 155.65 145.417C155.65 145.834 155.755 146.218 155.964 146.568C156.179 146.912 156.458 147.188 156.802 147.397C157.152 147.605 157.536 147.71 157.953 147.71ZM149.439 141.175C148.772 141.175 148.163 141.013 147.611 140.69C147.059 140.36 146.618 139.923 146.288 139.377C145.965 138.825 145.803 138.212 145.803 137.539C145.803 136.879 145.971 136.273 146.308 135.721C146.645 135.169 147.089 134.728 147.641 134.398C148.193 134.068 148.793 133.903 149.439 133.903C150.106 133.903 150.712 134.068 151.257 134.398C151.809 134.721 152.25 135.159 152.58 135.711C152.91 136.256 153.075 136.866 153.075 137.539C153.075 138.212 152.91 138.825 152.58 139.377C152.25 139.923 151.809 140.36 151.257 140.69C150.712 141.013 150.106 141.175 149.439 141.175ZM149.439 139.832C149.856 139.832 150.237 139.727 150.58 139.519C150.93 139.31 151.21 139.034 151.419 138.69C151.627 138.34 151.732 137.956 151.732 137.539C151.732 137.122 151.627 136.741 151.419 136.398C151.21 136.048 150.93 135.768 150.58 135.559C150.237 135.351 149.856 135.246 149.439 135.246C149.021 135.246 148.638 135.351 148.288 135.559C147.944 135.768 147.668 136.048 147.459 136.398C147.251 136.741 147.146 137.122 147.146 137.539C147.146 137.956 147.251 138.34 147.459 138.69C147.668 139.034 147.944 139.31 148.288 139.519C148.638 139.727 149.021 139.832 149.439 139.832Z" fill="#00AA79"/>
</g>
<g filter="url(#filter2_d_137_254)">
<rect x="111.788" y="1.52588e-05" width="57.4296" height="33.2872" rx="3.65793" fill="white" shape-rendering="crispEdges"/>
<path opacity="0.6" d="M115.575 8.58307V4.50864H115.991V8.18411H117.926V8.58307H115.575ZM119.702 8.66795C119.403 8.66795 119.145 8.60193 118.926 8.46989C118.709 8.33785 118.54 8.15205 118.42 7.91249C118.299 7.67292 118.239 7.39186 118.239 7.0693C118.239 6.73543 118.298 6.44682 118.417 6.20349C118.536 5.96015 118.703 5.77247 118.918 5.64042C119.135 5.50838 119.39 5.44236 119.685 5.44236C119.986 5.44236 120.244 5.51215 120.457 5.65174C120.67 5.78944 120.831 5.9875 120.941 6.24593C121.05 6.50435 121.1 6.81277 121.091 7.17117H120.666V7.02403C120.659 6.62791 120.573 6.32893 120.409 6.12709C120.247 5.92526 120.009 5.82434 119.696 5.82434C119.368 5.82434 119.116 5.93092 118.94 6.14407C118.767 6.35722 118.68 6.66092 118.68 7.05516C118.68 7.43996 118.767 7.73894 118.94 7.9521C119.116 8.16336 119.364 8.269 119.685 8.269C119.903 8.269 120.094 8.21901 120.256 8.11904C120.42 8.01718 120.549 7.87099 120.644 7.68047L121.031 7.83043C120.911 8.0964 120.732 8.30295 120.497 8.45008C120.263 8.59533 119.998 8.66795 119.702 8.66795ZM118.533 7.17117V6.82314H120.867V7.17117H118.533ZM122.538 8.66795C122.308 8.66795 122.114 8.62645 121.958 8.54346C121.803 8.46046 121.687 8.35011 121.61 8.21241C121.532 8.07471 121.494 7.92475 121.494 7.76252C121.494 7.59653 121.527 7.45505 121.593 7.3381C121.661 7.21927 121.752 7.12212 121.867 7.04667C121.984 6.97122 122.119 6.91368 122.272 6.87407C122.426 6.83634 122.597 6.80333 122.784 6.77504C122.973 6.74486 123.156 6.71939 123.336 6.69864C123.517 6.67601 123.675 6.65432 123.811 6.63357L123.664 6.72411C123.67 6.4223 123.611 6.19877 123.488 6.05353C123.366 5.90828 123.153 5.83566 122.849 5.83566C122.64 5.83566 122.462 5.88281 122.317 5.97713C122.174 6.07145 122.073 6.22046 122.014 6.42419L121.61 6.30535C121.679 6.03183 121.82 5.81962 122.031 5.66872C122.243 5.51781 122.517 5.44236 122.855 5.44236C123.134 5.44236 123.371 5.49518 123.565 5.60081C123.761 5.70456 123.9 5.85546 123.981 6.05353C124.019 6.14218 124.043 6.24121 124.054 6.35062C124.066 6.46003 124.071 6.57132 124.071 6.6845V8.58307H123.701V7.81628L123.808 7.86155C123.704 8.12375 123.543 8.3237 123.324 8.4614C123.106 8.5991 122.843 8.66795 122.538 8.66795ZM122.586 8.30861C122.78 8.30861 122.95 8.27371 123.095 8.20392C123.24 8.13413 123.357 8.03887 123.446 7.91814C123.535 7.79553 123.592 7.65783 123.619 7.50504C123.641 7.40695 123.654 7.29943 123.655 7.18248C123.657 7.06365 123.658 6.97499 123.658 6.91651L123.817 6.99857C123.675 7.01743 123.521 7.03629 123.355 7.05516C123.191 7.07402 123.029 7.09571 122.869 7.12023C122.71 7.14476 122.567 7.17399 122.439 7.20795C122.352 7.23247 122.268 7.26737 122.187 7.31264C122.106 7.35602 122.039 7.4145 121.986 7.48807C121.935 7.56163 121.91 7.65312 121.91 7.76252C121.91 7.85118 121.931 7.93701 121.975 8.02001C122.02 8.103 122.092 8.17185 122.19 8.22656C122.29 8.28126 122.422 8.30861 122.586 8.30861ZM125.993 8.66795C125.709 8.66795 125.465 8.59722 125.263 8.45574C125.062 8.31238 124.907 8.11904 124.799 7.8757C124.692 7.63237 124.638 7.35791 124.638 7.05233C124.638 6.74863 124.691 6.47512 124.797 6.23178C124.904 5.98845 125.058 5.79604 125.258 5.65457C125.458 5.5131 125.697 5.44236 125.976 5.44236C126.263 5.44236 126.505 5.51215 126.701 5.65174C126.897 5.79133 127.045 5.98279 127.145 6.22612C127.247 6.46757 127.298 6.74297 127.298 7.05233C127.298 7.35602 127.248 7.63048 127.148 7.8757C127.048 8.11904 126.901 8.31238 126.706 8.45574C126.512 8.59722 126.275 8.66795 125.993 8.66795ZM126.036 8.28032C126.253 8.28032 126.432 8.2275 126.573 8.12187C126.715 8.01623 126.821 7.87099 126.89 7.68613C126.96 7.49938 126.995 7.28812 126.995 7.05233C126.995 6.81277 126.96 6.6015 126.89 6.41853C126.821 6.23367 126.715 6.08937 126.573 5.98562C126.434 5.88187 126.258 5.83 126.044 5.83C125.826 5.83 125.644 5.88376 125.501 5.99128C125.358 6.0988 125.251 6.24499 125.181 6.42984C125.113 6.6147 125.08 6.8222 125.08 7.05233C125.08 7.28434 125.114 7.49372 125.184 7.68047C125.256 7.86533 125.362 8.01152 125.504 8.11904C125.645 8.22656 125.823 8.28032 126.036 8.28032ZM126.995 8.58307V6.28271H126.95V4.50864H127.369V8.58307H126.995ZM129.303 8.66512C128.944 8.66512 128.649 8.58778 128.417 8.43311C128.187 8.27843 128.045 8.06339 127.993 7.78799L128.417 7.71725C128.462 7.89079 128.565 8.02944 128.725 8.13318C128.888 8.23504 129.088 8.28597 129.325 8.28597C129.557 8.28597 129.74 8.23787 129.874 8.14167C130.008 8.04358 130.075 7.9106 130.075 7.74272C130.075 7.6484 130.053 7.57201 130.01 7.51353C129.969 7.45317 129.883 7.39752 129.753 7.34659C129.622 7.29566 129.428 7.2353 129.17 7.16551C128.892 7.09005 128.675 7.0146 128.519 6.93915C128.362 6.8637 128.251 6.77693 128.185 6.67884C128.119 6.57886 128.086 6.4572 128.086 6.31384C128.086 6.1403 128.135 5.98845 128.233 5.85829C128.331 5.72625 128.467 5.62439 128.641 5.55271C128.814 5.47914 129.016 5.44236 129.246 5.44236C129.476 5.44236 129.682 5.48009 129.863 5.55554C130.046 5.62911 130.193 5.73285 130.304 5.86678C130.416 6.00071 130.482 6.15633 130.502 6.33364L130.078 6.41004C130.05 6.23084 129.96 6.08937 129.809 5.98562C129.66 5.87999 129.471 5.82528 129.24 5.82151C129.023 5.81585 128.847 5.85735 128.711 5.94601C128.575 6.03278 128.508 6.14878 128.508 6.29403C128.508 6.37514 128.532 6.44494 128.581 6.50341C128.63 6.56 128.719 6.61376 128.847 6.66469C128.977 6.71562 129.162 6.77127 129.402 6.83163C129.683 6.90331 129.903 6.97876 130.064 7.05799C130.224 7.13721 130.338 7.23058 130.406 7.3381C130.474 7.44562 130.508 7.57861 130.508 7.73706C130.508 8.02566 130.4 8.25296 130.185 8.41896C129.972 8.58307 129.678 8.66512 129.303 8.66512Z" fill="#342D53"/>
<path opacity="0.6" d="M141.668 7.58132L141.67 7.3467L142.81 6.31719C142.908 6.22848 142.972 6.14443 143.004 6.06506C143.037 5.98452 143.053 5.90048 143.053 5.81294C143.053 5.70905 143.028 5.61509 142.979 5.53104C142.93 5.447 142.864 5.38047 142.782 5.33145C142.699 5.28125 142.606 5.25616 142.503 5.25616C142.396 5.25616 142.3 5.28184 142.216 5.3332C142.132 5.38455 142.065 5.45226 142.016 5.5363C141.969 5.62034 141.945 5.71197 141.946 5.81118H141.684C141.684 5.65827 141.72 5.52112 141.792 5.39973C141.865 5.27834 141.963 5.1832 142.086 5.11434C142.21 5.0443 142.35 5.00928 142.507 5.00928C142.66 5.00928 142.797 5.04547 142.918 5.11784C143.041 5.18904 143.137 5.28592 143.207 5.40848C143.278 5.52988 143.314 5.66528 143.314 5.81469C143.314 5.91974 143.301 6.01254 143.275 6.09308C143.251 6.17245 143.212 6.24657 143.158 6.31544C143.105 6.38314 143.038 6.45317 142.957 6.52554L141.945 7.4395L141.904 7.33444H143.314V7.58132H141.668ZM144.479 7.6356C144.348 7.6356 144.228 7.60875 144.117 7.55505C144.006 7.50136 143.911 7.42724 143.833 7.33269C143.755 7.23815 143.699 7.12959 143.665 7.00703L143.912 6.9405C143.934 7.03154 143.974 7.11033 144.033 7.17687C144.091 7.24223 144.159 7.29301 144.238 7.32919C144.317 7.36538 144.4 7.38347 144.486 7.38347C144.598 7.38347 144.699 7.35662 144.787 7.30293C144.877 7.24807 144.948 7.1757 145.001 7.08582C145.054 6.99594 145.08 6.89731 145.08 6.78992C145.08 6.67903 145.052 6.57923 144.997 6.49052C144.943 6.40065 144.87 6.32944 144.78 6.27692C144.69 6.22439 144.592 6.19813 144.486 6.19813C144.367 6.19813 144.264 6.22439 144.178 6.27692C144.092 6.32828 144.023 6.39306 143.971 6.47126L143.737 6.37321L143.814 5.06181H145.16V5.30868H143.928L144.056 5.18787L143.987 6.30668L143.922 6.22089C143.995 6.13801 144.082 6.07323 144.185 6.02654C144.288 5.97985 144.396 5.95651 144.509 5.95651C144.664 5.95651 144.804 5.99386 144.929 6.06856C145.054 6.1421 145.153 6.2419 145.227 6.36796C145.3 6.49403 145.337 6.63468 145.337 6.78992C145.337 6.944 145.298 7.08524 145.22 7.21363C145.142 7.34086 145.038 7.443 144.908 7.52004C144.779 7.59708 144.636 7.6356 144.479 7.6356ZM146.001 7.58307L145.826 7.40798L148.178 5.06181L148.353 5.23515L146.001 7.58307ZM147.827 7.6356C147.712 7.6356 147.606 7.60758 147.511 7.55155C147.416 7.49436 147.34 7.41849 147.283 7.32394C147.226 7.22823 147.197 7.12201 147.197 7.00528C147.197 6.89089 147.226 6.78584 147.285 6.69012C147.343 6.59441 147.42 6.51795 147.516 6.46076C147.611 6.40356 147.715 6.37497 147.827 6.37497C147.943 6.37497 148.049 6.40356 148.144 6.46076C148.24 6.51679 148.316 6.59266 148.372 6.68837C148.429 6.78292 148.458 6.88856 148.458 7.00528C148.458 7.12201 148.429 7.22823 148.372 7.32394C148.316 7.41849 148.24 7.49436 148.144 7.55155C148.049 7.60758 147.943 7.6356 147.827 7.6356ZM147.827 7.40273C147.899 7.40273 147.965 7.38464 148.025 7.34845C148.086 7.31227 148.134 7.26441 148.171 7.20488C148.207 7.14418 148.225 7.07765 148.225 7.00528C148.225 6.93291 148.207 6.86696 148.171 6.80743C148.134 6.74673 148.086 6.69829 148.025 6.66211C147.965 6.62592 147.899 6.60783 147.827 6.60783C147.755 6.60783 147.689 6.62592 147.628 6.66211C147.568 6.69829 147.52 6.74673 147.482 6.80743C147.446 6.86696 147.428 6.93291 147.428 7.00528C147.428 7.07765 147.446 7.14418 147.482 7.20488C147.52 7.26441 147.568 7.31227 147.628 7.34845C147.689 7.38464 147.755 7.40273 147.827 7.40273ZM146.351 6.26991C146.236 6.26991 146.13 6.2419 146.035 6.18587C145.939 6.12868 145.862 6.05281 145.805 5.95826C145.749 5.86254 145.721 5.75632 145.721 5.6396C145.721 5.52521 145.75 5.42016 145.809 5.32444C145.867 5.22873 145.944 5.15227 146.04 5.09508C146.135 5.03788 146.239 5.00928 146.351 5.00928C146.467 5.00928 146.572 5.03788 146.667 5.09508C146.762 5.15111 146.839 5.22698 146.896 5.32269C146.953 5.41724 146.982 5.52287 146.982 5.6396C146.982 5.75632 146.953 5.86254 146.896 5.95826C146.839 6.05281 146.762 6.12868 146.667 6.18587C146.572 6.2419 146.467 6.26991 146.351 6.26991ZM146.351 6.03705C146.424 6.03705 146.49 6.01895 146.549 5.98277C146.61 5.94659 146.658 5.89873 146.695 5.8392C146.731 5.7785 146.749 5.71197 146.749 5.6396C146.749 5.56723 146.731 5.50128 146.695 5.44175C146.658 5.38105 146.61 5.33261 146.549 5.29643C146.49 5.26024 146.424 5.24215 146.351 5.24215C146.279 5.24215 146.213 5.26024 146.152 5.29643C146.092 5.33261 146.044 5.38105 146.008 5.44175C145.972 5.50128 145.954 5.56723 145.954 5.6396C145.954 5.71197 145.972 5.7785 146.008 5.8392C146.044 5.89873 146.092 5.94659 146.152 5.98277C146.213 6.01895 146.279 6.03705 146.351 6.03705ZM151.869 7.58307L151.87 6.3417C151.87 6.19579 151.83 6.0814 151.748 5.99853C151.667 5.91449 151.565 5.87247 151.44 5.87247C151.368 5.87247 151.299 5.88881 151.231 5.92149C151.164 5.95417 151.108 6.0067 151.063 6.07907C151.02 6.15144 150.998 6.24598 150.998 6.36271L150.846 6.31894C150.843 6.18354 150.869 6.06506 150.925 5.96351C150.982 5.86196 151.06 5.78317 151.16 5.72714C151.26 5.66995 151.373 5.64135 151.499 5.64135C151.689 5.64135 151.842 5.7003 151.956 5.81819C152.071 5.93491 152.128 6.09308 152.128 6.29267L152.126 7.58307H151.869ZM149.612 7.58307V5.69213H149.843V6.15786H149.871V7.58307H149.612ZM150.743 7.58307L150.745 6.35921C150.745 6.20863 150.704 6.09016 150.624 6.00378C150.544 5.91624 150.439 5.87247 150.309 5.87247C150.178 5.87247 150.072 5.9174 149.992 6.00728C149.911 6.09599 149.871 6.21447 149.871 6.36271L149.717 6.27867C149.717 6.15727 149.745 6.04872 149.803 5.95301C149.86 5.85612 149.938 5.78025 150.037 5.72539C150.136 5.66936 150.249 5.64135 150.375 5.64135C150.495 5.64135 150.602 5.66703 150.696 5.71839C150.79 5.76975 150.864 5.84445 150.918 5.9425C150.972 6.04055 150.998 6.15961 150.998 6.29968L150.997 7.58307H150.743ZM153.361 7.6356C153.173 7.6356 153.013 7.59299 152.88 7.50778C152.747 7.42257 152.644 7.30468 152.573 7.1541C152.502 7.00353 152.466 6.83078 152.466 6.63585C152.466 6.43741 152.503 6.26349 152.575 6.11409C152.647 5.96468 152.75 5.84854 152.883 5.76566C153.017 5.68162 153.177 5.6396 153.361 5.6396C153.55 5.6396 153.711 5.6822 153.844 5.76741C153.979 5.85145 154.081 5.96876 154.151 6.11934C154.222 6.26875 154.258 6.44092 154.258 6.63585C154.258 6.83428 154.222 7.00878 154.151 7.15936C154.08 7.30877 153.977 7.42549 153.843 7.50953C153.708 7.59357 153.548 7.6356 153.361 7.6356ZM153.361 7.38872C153.571 7.38872 153.728 7.31927 153.83 7.18037C153.933 7.0403 153.985 6.85879 153.985 6.63585C153.985 6.40707 153.933 6.22497 153.829 6.08957C153.726 5.95417 153.57 5.88647 153.361 5.88647C153.22 5.88647 153.103 5.91857 153.011 5.98277C152.92 6.0458 152.852 6.13393 152.806 6.24715C152.762 6.35921 152.74 6.48877 152.74 6.63585C152.74 6.86346 152.792 7.04613 152.897 7.18387C153.002 7.32044 153.157 7.38872 153.361 7.38872ZM154.644 7.58307V5.69213H154.875V6.14735L154.829 6.08782C154.85 6.03179 154.878 5.98044 154.912 5.93375C154.946 5.88589 154.982 5.84679 155.022 5.81644C155.071 5.77325 155.128 5.74057 155.194 5.71839C155.259 5.69504 155.325 5.68162 155.391 5.67812C155.458 5.67345 155.519 5.67812 155.574 5.69213V5.93375C155.505 5.91624 155.429 5.91215 155.348 5.92149C155.266 5.93083 155.191 5.96351 155.122 6.01954C155.059 6.06856 155.012 6.12751 154.98 6.19638C154.949 6.26408 154.928 6.33645 154.917 6.41349C154.907 6.48936 154.901 6.56464 154.901 6.63935V7.58307H154.644ZM156.672 7.6356C156.487 7.6356 156.327 7.59474 156.192 7.51303C156.058 7.43133 155.953 7.31635 155.879 7.16811C155.804 7.01987 155.766 6.84595 155.766 6.64635C155.766 6.43975 155.803 6.26116 155.877 6.11058C155.95 5.96001 156.054 5.84387 156.187 5.76216C156.321 5.68045 156.479 5.6396 156.661 5.6396C156.848 5.6396 157.007 5.68279 157.139 5.76916C157.271 5.85437 157.371 5.97693 157.439 6.13685C157.506 6.29676 157.537 6.48761 157.531 6.70938H157.269V6.61834C157.264 6.37322 157.211 6.18821 157.109 6.06331C157.009 5.93841 156.862 5.87597 156.668 5.87597C156.465 5.87597 156.309 5.94192 156.201 6.07382C156.093 6.20571 156.04 6.39364 156.04 6.6376C156.04 6.87572 156.093 7.06072 156.201 7.19262C156.309 7.32336 156.463 7.38872 156.661 7.38872C156.797 7.38872 156.914 7.35779 157.015 7.29593C157.116 7.23289 157.196 7.14243 157.255 7.02454L157.495 7.11734C157.42 7.28192 157.31 7.40973 157.164 7.50078C157.019 7.59066 156.855 7.6356 156.672 7.6356ZM155.949 6.70938V6.49403H157.393V6.70938H155.949ZM159.65 7.58307C159.544 7.60525 159.439 7.614 159.335 7.60933C159.233 7.60466 159.14 7.58249 159.059 7.5428C158.978 7.50311 158.917 7.44125 158.875 7.35721C158.841 7.28717 158.822 7.21655 158.819 7.14535C158.816 7.07298 158.815 6.99069 158.815 6.89848V5.16686H159.071V6.88797C159.071 6.96734 159.072 7.03388 159.073 7.08757C159.075 7.1401 159.087 7.18679 159.109 7.22764C159.151 7.30585 159.218 7.35254 159.309 7.36771C159.401 7.38289 159.515 7.37938 159.65 7.35721V7.58307ZM158.411 5.91274V5.69213H159.65V5.91274H158.411ZM161.389 7.58307V6.61834C161.389 6.51328 161.379 6.41699 161.359 6.32944C161.339 6.24073 161.307 6.16369 161.263 6.09833C161.219 6.03179 161.163 5.98044 161.093 5.94425C161.024 5.90807 160.94 5.88997 160.841 5.88997C160.75 5.88997 160.669 5.90573 160.599 5.93725C160.53 5.96876 160.472 6.01429 160.424 6.07382C160.377 6.13218 160.342 6.20338 160.317 6.28742C160.293 6.37146 160.28 6.46718 160.28 6.57457L160.098 6.5343C160.098 6.34053 160.132 6.1777 160.2 6.0458C160.268 5.9139 160.361 5.8141 160.48 5.7464C160.599 5.6787 160.736 5.64485 160.89 5.64485C161.003 5.64485 161.102 5.66236 161.186 5.69738C161.271 5.7324 161.343 5.77967 161.401 5.8392C161.46 5.89873 161.508 5.96701 161.545 6.04405C161.581 6.11992 161.607 6.20105 161.623 6.28742C161.64 6.37263 161.648 6.45784 161.648 6.54305V7.58307H161.389ZM160.021 7.58307V5.06181H160.254V6.48527H160.28V7.58307H160.021ZM162.643 7.6356C162.501 7.6356 162.381 7.60992 162.284 7.55856C162.189 7.5072 162.117 7.43891 162.069 7.3537C162.021 7.2685 161.997 7.1757 161.997 7.07532C161.997 6.9726 162.018 6.88505 162.058 6.81268C162.1 6.73915 162.157 6.67903 162.228 6.63234C162.301 6.58565 162.384 6.55005 162.479 6.52554C162.574 6.5022 162.68 6.48177 162.796 6.46426C162.912 6.44558 163.026 6.42983 163.137 6.41699C163.249 6.40298 163.347 6.38956 163.431 6.37672L163.34 6.43274C163.344 6.24598 163.307 6.10767 163.231 6.01779C163.156 5.92791 163.024 5.88297 162.836 5.88297C162.706 5.88297 162.597 5.91215 162.507 5.97051C162.418 6.02888 162.355 6.12109 162.319 6.24715L162.069 6.17362C162.112 6.00436 162.199 5.87305 162.33 5.77967C162.461 5.68629 162.63 5.6396 162.839 5.6396C163.012 5.6396 163.159 5.67228 163.279 5.73765C163.4 5.80185 163.486 5.89523 163.536 6.01779C163.559 6.07265 163.575 6.13393 163.582 6.20163C163.589 6.26933 163.592 6.3382 163.592 6.40823V7.58307H163.363V7.10858L163.429 7.1366C163.365 7.29884 163.265 7.42257 163.13 7.50778C162.995 7.59299 162.832 7.6356 162.643 7.6356ZM162.673 7.41323C162.793 7.41323 162.898 7.39164 162.988 7.34845C163.078 7.30526 163.15 7.24632 163.205 7.17161C163.26 7.09574 163.296 7.01053 163.312 6.91599C163.326 6.85529 163.334 6.78876 163.335 6.71639C163.336 6.64285 163.337 6.58799 163.337 6.5518L163.435 6.60258C163.347 6.61425 163.252 6.62592 163.149 6.6376C163.048 6.64927 162.947 6.66269 162.848 6.67787C162.75 6.69304 162.661 6.71113 162.582 6.73214C162.528 6.74732 162.476 6.76891 162.426 6.79693C162.376 6.82377 162.334 6.85996 162.302 6.90548C162.27 6.951 162.255 7.00761 162.255 7.07532C162.255 7.13018 162.268 7.18329 162.295 7.23464C162.323 7.286 162.367 7.32861 162.428 7.36246C162.49 7.39631 162.571 7.41323 162.673 7.41323ZM165.414 7.58307V6.61834C165.414 6.51328 165.404 6.41699 165.384 6.32944C165.364 6.24073 165.332 6.16369 165.288 6.09833C165.244 6.03179 165.188 5.98044 165.118 5.94425C165.049 5.90807 164.965 5.88997 164.866 5.88997C164.775 5.88997 164.694 5.90573 164.624 5.93725C164.555 5.96876 164.497 6.01429 164.449 6.07382C164.402 6.13218 164.367 6.20338 164.342 6.28742C164.318 6.37146 164.305 6.46718 164.305 6.57457L164.123 6.5343C164.123 6.34053 164.157 6.1777 164.225 6.0458C164.293 5.9139 164.386 5.8141 164.505 5.7464C164.624 5.6787 164.761 5.64485 164.915 5.64485C165.028 5.64485 165.127 5.66236 165.211 5.69738C165.296 5.7324 165.368 5.77967 165.426 5.8392C165.485 5.89873 165.533 5.96701 165.569 6.04405C165.606 6.11992 165.632 6.20105 165.648 6.28742C165.665 6.37263 165.673 6.45784 165.673 6.54305V7.58307H165.414ZM164.046 7.58307V5.69213H164.279V6.15786H164.305V7.58307H164.046ZM141.818 12.6356C141.644 12.6356 141.497 12.5918 141.377 12.5043C141.256 12.4156 141.165 12.2959 141.103 12.1454C141.042 11.9936 141.011 11.8238 141.011 11.6358C141.011 11.4444 141.042 11.274 141.103 11.1246C141.166 10.974 141.259 10.8555 141.38 10.7692C141.501 10.6828 141.651 10.6396 141.828 10.6396C142.001 10.6396 142.149 10.6834 142.273 10.7709C142.397 10.8585 142.491 10.9775 142.557 11.1281C142.623 11.2787 142.656 11.4479 142.656 11.6358C142.656 11.8249 142.623 11.9948 142.557 12.1454C142.49 12.2959 142.394 12.4156 142.269 12.5043C142.145 12.5918 141.994 12.6356 141.818 12.6356ZM140.967 13.4235V10.6921H141.198V12.1156H141.226V13.4235H140.967ZM141.791 12.3957C141.923 12.3957 142.033 12.3625 142.121 12.2959C142.208 12.2294 142.274 12.1389 142.317 12.0245C142.361 11.909 142.383 11.7794 142.383 11.6358C142.383 11.4934 142.362 11.365 142.319 11.2507C142.275 11.1363 142.209 11.0458 142.121 10.9793C142.033 10.9127 141.922 10.8795 141.786 10.8795C141.654 10.8795 141.545 10.9116 141.457 10.9758C141.371 11.04 141.306 11.1293 141.263 11.2437C141.22 11.3569 141.198 11.4876 141.198 11.6358C141.198 11.7818 141.22 11.9125 141.263 12.028C141.306 12.1424 141.371 12.2323 141.459 12.2977C141.546 12.363 141.657 12.3957 141.791 12.3957ZM143.041 12.5831V10.6921H143.272V11.1474L143.227 11.0878C143.248 11.0318 143.275 10.9804 143.309 10.9337C143.343 10.8859 143.379 10.8468 143.419 10.8164C143.468 10.7732 143.525 10.7406 143.591 10.7184C143.656 10.695 143.722 10.6816 143.789 10.6781C143.855 10.6734 143.916 10.6781 143.971 10.6921V10.9337C143.902 10.9162 143.826 10.9122 143.745 10.9215C143.663 10.9308 143.588 10.9635 143.519 11.0195C143.456 11.0686 143.409 11.1275 143.377 11.1964C143.346 11.2641 143.325 11.3364 143.314 11.4135C143.304 11.4894 143.298 11.5646 143.298 11.6393V12.5831H143.041ZM145.069 12.6356C144.884 12.6356 144.724 12.5947 144.589 12.513C144.455 12.4313 144.35 12.3164 144.276 12.1681C144.201 12.0199 144.164 11.846 144.164 11.6464C144.164 11.4397 144.2 11.2612 144.274 11.1106C144.347 10.96 144.451 10.8439 144.584 10.7622C144.718 10.6805 144.876 10.6396 145.058 10.6396C145.245 10.6396 145.404 10.6828 145.536 10.7692C145.668 10.8544 145.768 10.9769 145.836 11.1368C145.903 11.2968 145.934 11.4876 145.928 11.7094H145.666V11.6183C145.661 11.3732 145.608 11.1882 145.506 11.0633C145.406 10.9384 145.259 10.876 145.065 10.876C144.862 10.876 144.706 10.9419 144.598 11.0738C144.49 11.2057 144.437 11.3936 144.437 11.6376C144.437 11.8757 144.49 12.0607 144.598 12.1926C144.706 12.3234 144.86 12.3887 145.058 12.3887C145.194 12.3887 145.312 12.3578 145.412 12.2959C145.513 12.2329 145.593 12.1424 145.652 12.0245L145.892 12.1173C145.817 12.2819 145.707 12.4097 145.561 12.5008C145.416 12.5907 145.252 12.6356 145.069 12.6356ZM144.346 11.7094V11.494H145.79V11.7094H144.346ZM146.76 12.5831L146.073 10.6921H146.334L146.893 12.2469L147.448 10.6921H147.712L147.026 12.5831H146.76ZM148.062 10.3332V10.0443H148.319V10.3332H148.062ZM148.062 12.5831V10.6921H148.319V12.5831H148.062ZM149.634 12.6356C149.446 12.6356 149.285 12.593 149.152 12.5078C149.019 12.4226 148.917 12.3047 148.846 12.1541C148.775 12.0035 148.739 11.8308 148.739 11.6358C148.739 11.4374 148.775 11.2635 148.848 11.1141C148.92 10.9647 149.023 10.8485 149.156 10.7657C149.29 10.6816 149.449 10.6396 149.634 10.6396C149.823 10.6396 149.984 10.6822 150.117 10.7674C150.251 10.8515 150.353 10.9688 150.423 11.1193C150.495 11.2687 150.53 11.4409 150.53 11.6358C150.53 11.8343 150.495 12.0088 150.423 12.1594C150.352 12.3088 150.249 12.4255 150.115 12.5095C149.981 12.5936 149.821 12.6356 149.634 12.6356ZM149.634 12.3887C149.844 12.3887 150 12.3193 150.103 12.1804C150.206 12.0403 150.257 11.8588 150.257 11.6358C150.257 11.4071 150.205 11.225 150.101 11.0896C149.999 10.9542 149.843 10.8865 149.634 10.8865C149.493 10.8865 149.376 10.9186 149.284 10.9828C149.193 11.0458 149.124 11.1339 149.079 11.2472C149.034 11.3592 149.012 11.4888 149.012 11.6358C149.012 11.8635 149.065 12.0461 149.17 12.1839C149.275 12.3204 149.429 12.3887 149.634 12.3887ZM151.64 12.6303C151.526 12.6303 151.427 12.6128 151.342 12.5778C151.258 12.5428 151.186 12.4955 151.127 12.436C151.068 12.3765 151.021 12.3088 150.985 12.2329C150.949 12.1559 150.922 12.0747 150.906 11.9895C150.89 11.9031 150.881 11.8174 150.881 11.7321V10.6921H151.141V11.6569C151.141 11.7607 151.15 11.857 151.17 11.9458C151.19 12.0345 151.222 12.1121 151.265 12.1786C151.309 12.244 151.366 12.2948 151.435 12.3309C151.505 12.3671 151.589 12.3852 151.689 12.3852C151.78 12.3852 151.86 12.3695 151.928 12.3379C151.998 12.3064 152.057 12.2615 152.104 12.2031C152.151 12.1436 152.188 12.0718 152.212 11.9878C152.237 11.9026 152.249 11.8068 152.249 11.7006L152.431 11.7409C152.431 11.9347 152.397 12.0975 152.329 12.2294C152.262 12.3613 152.168 12.4611 152.049 12.5288C151.93 12.5965 151.794 12.6303 151.64 12.6303ZM152.275 12.5831V12.1173H152.249V10.6921H152.506V12.5831H152.275ZM153.701 12.6338C153.479 12.6338 153.297 12.586 153.153 12.4903C153.011 12.3946 152.923 12.2615 152.891 12.0911L153.153 12.0473C153.181 12.1547 153.245 12.2405 153.344 12.3047C153.444 12.3677 153.568 12.3992 153.715 12.3992C153.859 12.3992 153.972 12.3695 154.055 12.3099C154.138 12.2492 154.179 12.1669 154.179 12.0631C154.179 12.0047 154.166 11.9574 154.139 11.9212C154.113 11.8839 154.06 11.8495 153.98 11.8179C153.899 11.7864 153.779 11.7491 153.619 11.7059C153.447 11.6592 153.313 11.6125 153.216 11.5658C153.119 11.5191 153.05 11.4654 153.01 11.4047C152.969 11.3429 152.948 11.2676 152.948 11.1789C152.948 11.0715 152.979 10.9775 153.039 10.897C153.1 10.8153 153.184 10.7522 153.291 10.7079C153.399 10.6624 153.524 10.6396 153.666 10.6396C153.809 10.6396 153.936 10.6629 154.048 10.7096C154.161 10.7552 154.252 10.8194 154.321 10.9022C154.39 10.9851 154.431 11.0814 154.444 11.1911L154.181 11.2384C154.163 11.1275 154.108 11.04 154.015 10.9758C153.922 10.9104 153.805 10.8766 153.663 10.8742C153.528 10.8707 153.419 10.8964 153.335 10.9513C153.251 11.0049 153.209 11.0767 153.209 11.1666C153.209 11.2168 153.224 11.26 153.255 11.2962C153.285 11.3312 153.34 11.3645 153.419 11.396C153.5 11.4275 153.614 11.4619 153.762 11.4993C153.936 11.5436 154.073 11.5903 154.172 11.6393C154.271 11.6884 154.342 11.7462 154.384 11.8127C154.426 11.8792 154.447 11.9615 154.447 12.0596C154.447 12.2381 154.381 12.3788 154.247 12.4815C154.116 12.5831 153.933 12.6338 153.701 12.6338ZM157.792 12.5831L157.793 11.3417C157.793 11.1958 157.752 11.0814 157.671 10.9985C157.59 10.9145 157.487 10.8725 157.363 10.8725C157.291 10.8725 157.222 10.8888 157.154 10.9215C157.087 10.9542 157.03 11.0067 156.986 11.0791C156.943 11.1514 156.921 11.246 156.921 11.3627L156.769 11.3189C156.766 11.1835 156.792 11.0651 156.848 10.9635C156.905 10.862 156.983 10.7832 157.082 10.7271C157.183 10.6699 157.296 10.6413 157.422 10.6413C157.612 10.6413 157.765 10.7003 157.879 10.8182C157.993 10.9349 158.051 11.0931 158.051 11.2927L158.049 12.5831H157.792ZM155.535 12.5831V10.6921H155.766V11.1579H155.794V12.5831H155.535ZM156.666 12.5831L156.667 11.3592C156.667 11.2086 156.627 11.0902 156.547 11.0038C156.467 10.9162 156.362 10.8725 156.232 10.8725C156.101 10.8725 155.995 10.9174 155.915 11.0073C155.834 11.096 155.794 11.2145 155.794 11.3627L155.64 11.2787C155.64 11.1573 155.668 11.0487 155.726 10.953C155.783 10.8561 155.861 10.7803 155.96 10.7254C156.059 10.6694 156.172 10.6413 156.298 10.6413C156.418 10.6413 156.525 10.667 156.618 10.7184C156.713 10.7697 156.787 10.8445 156.841 10.9425C156.895 11.0405 156.921 11.1596 156.921 11.2997L156.92 12.5831H156.666ZM159.284 12.6356C159.096 12.6356 158.936 12.593 158.803 12.5078C158.67 12.4226 158.567 12.3047 158.496 12.1541C158.425 12.0035 158.389 11.8308 158.389 11.6358C158.389 11.4374 158.426 11.2635 158.498 11.1141C158.57 10.9647 158.673 10.8485 158.806 10.7657C158.94 10.6816 159.1 10.6396 159.284 10.6396C159.473 10.6396 159.634 10.6822 159.767 10.7674C159.902 10.8515 160.004 10.9688 160.074 11.1193C160.145 11.2687 160.181 11.4409 160.181 11.6358C160.181 11.8343 160.145 12.0088 160.074 12.1594C160.003 12.3088 159.9 12.4255 159.766 12.5095C159.631 12.5936 159.471 12.6356 159.284 12.6356ZM159.284 12.3887C159.494 12.3887 159.651 12.3193 159.753 12.1804C159.856 12.0403 159.907 11.8588 159.907 11.6358C159.907 11.4071 159.855 11.225 159.752 11.0896C159.649 10.9542 159.493 10.8865 159.284 10.8865C159.143 10.8865 159.026 10.9186 158.934 10.9828C158.843 11.0458 158.775 11.1339 158.729 11.2472C158.685 11.3592 158.663 11.4888 158.663 11.6358C158.663 11.8635 158.715 12.0461 158.82 12.1839C158.925 12.3204 159.08 12.3887 159.284 12.3887ZM161.932 12.5831V11.6183C161.932 11.5133 161.923 11.417 161.903 11.3294C161.883 11.2407 161.851 11.1637 161.806 11.0983C161.763 11.0318 161.707 10.9804 161.637 10.9443C161.568 10.9081 161.484 10.89 161.384 10.89C161.293 10.89 161.213 10.9057 161.143 10.9372C161.074 10.9688 161.016 11.0143 160.968 11.0738C160.921 11.1322 160.885 11.2034 160.861 11.2874C160.836 11.3715 160.824 11.4672 160.824 11.5746L160.642 11.5343C160.642 11.3405 160.676 11.1777 160.744 11.0458C160.811 10.9139 160.905 10.8141 161.024 10.7464C161.143 10.6787 161.279 10.6449 161.433 10.6449C161.547 10.6449 161.645 10.6624 161.729 10.6974C161.815 10.7324 161.886 10.7797 161.945 10.8392C162.004 10.8987 162.052 10.967 162.088 11.0441C162.124 11.1199 162.151 11.201 162.167 11.2874C162.183 11.3726 162.192 11.4578 162.192 11.543V12.5831H161.932ZM160.565 12.5831V10.6921H160.798V11.1579H160.824V12.5831H160.565ZM163.675 12.5831C163.569 12.6052 163.464 12.614 163.36 12.6093C163.258 12.6047 163.165 12.5825 163.084 12.5428C163.003 12.5031 162.942 12.4412 162.9 12.3572C162.866 12.2872 162.847 12.2166 162.844 12.1454C162.841 12.073 162.84 11.9907 162.84 11.8985V10.1669H163.096V11.888C163.096 11.9673 163.096 12.0339 163.098 12.0876C163.1 12.1401 163.112 12.1868 163.134 12.2276C163.176 12.3058 163.243 12.3525 163.334 12.3677C163.426 12.3829 163.54 12.3794 163.675 12.3572V12.5831ZM162.436 10.9127V10.6921H163.675V10.9127H162.436ZM165.414 12.5831V11.6183C165.414 11.5133 165.404 11.417 165.384 11.3294C165.364 11.2407 165.332 11.1637 165.288 11.0983C165.244 11.0318 165.188 10.9804 165.118 10.9443C165.049 10.9081 164.965 10.89 164.866 10.89C164.775 10.89 164.694 10.9057 164.624 10.9372C164.555 10.9688 164.497 11.0143 164.449 11.0738C164.402 11.1322 164.367 11.2034 164.342 11.2874C164.318 11.3715 164.305 11.4672 164.305 11.5746L164.123 11.5343C164.123 11.3405 164.157 11.1777 164.225 11.0458C164.293 10.9139 164.386 10.8141 164.505 10.7464C164.624 10.6787 164.761 10.6449 164.915 10.6449C165.028 10.6449 165.127 10.6624 165.211 10.6974C165.296 10.7324 165.368 10.7797 165.426 10.8392C165.485 10.8987 165.533 10.967 165.569 11.0441C165.606 11.1199 165.632 11.201 165.648 11.2874C165.665 11.3726 165.673 11.4578 165.673 11.543V12.5831H165.414ZM164.046 12.5831V10.0618H164.279V11.4853H164.305V12.5831H164.046Z" fill="#342D53"/>
<path d="M116.545 28.6968L116.552 27.7067L121.363 23.3619C121.776 22.9875 122.05 22.6329 122.183 22.2979C122.321 21.958 122.39 21.6033 122.39 21.2339C122.39 20.7955 122.286 20.3989 122.079 20.0442C121.873 19.6896 121.594 19.4088 121.244 19.2019C120.895 18.9901 120.503 18.8842 120.07 18.8842C119.616 18.8842 119.212 18.9925 118.858 19.2093C118.503 19.426 118.222 19.7117 118.015 20.0664C117.814 20.4211 117.715 20.8078 117.72 21.2265H116.612C116.612 20.5812 116.764 20.0024 117.07 19.4901C117.375 18.9778 117.789 18.5763 118.311 18.2856C118.833 17.9901 119.424 17.8423 120.084 17.8423C120.73 17.8423 121.309 17.995 121.821 18.3004C122.338 18.6009 122.744 19.0098 123.04 19.527C123.34 20.0393 123.491 20.6107 123.491 21.2413C123.491 21.6846 123.437 22.0762 123.328 22.4161C123.225 22.7511 123.06 23.0639 122.833 23.3545C122.611 23.6402 122.328 23.9358 121.983 24.2412L117.713 28.0983L117.543 27.6549H123.491V28.6968H116.545ZM128.128 28.9185C127.601 28.9185 127.116 28.8249 126.673 28.6377C126.229 28.4505 125.848 28.1845 125.527 27.8397C125.207 27.4899 124.973 27.0737 124.825 26.5909L125.86 26.2806C126.037 26.8077 126.328 27.2067 126.732 27.4776C127.141 27.7485 127.601 27.8791 128.114 27.8692C128.586 27.8594 128.993 27.7535 129.333 27.5515C129.678 27.3495 129.941 27.0687 130.123 26.7091C130.306 26.3495 130.397 25.9333 130.397 25.4604C130.397 24.7363 130.185 24.155 129.761 23.7166C129.343 23.2732 128.788 23.0516 128.099 23.0516C127.907 23.0516 127.705 23.0787 127.493 23.1329C127.281 23.1821 127.084 23.2535 126.902 23.3471L126.355 22.4826L130.493 18.6625L130.67 19.1058H125.247V18.064H131.394V19.1206L127.788 22.5639L127.774 22.1353C128.513 22.0417 129.163 22.1255 129.724 22.3866C130.286 22.6476 130.724 23.0466 131.04 23.5836C131.36 24.1156 131.52 24.7412 131.52 25.4604C131.52 26.1402 131.372 26.7412 131.077 27.2633C130.786 27.7805 130.384 28.1869 129.872 28.4825C129.36 28.7731 128.779 28.9185 128.128 28.9185ZM138.122 28.7042V26.6426H133.142V25.6082L136.703 18.064H137.922L134.361 25.6082H138.122V22.5048H139.215V25.6082H140.375V26.6426H139.215V28.7042H138.122Z" fill="#00AA79"/>
</g>
<g filter="url(#filter3_d_137_254)">
<rect x="8.50537" y="37.7234" width="72.0762" height="41.7767" rx="4.59084" fill="white" shape-rendering="crispEdges"/>
<path opacity="0.6" d="M13.3848 49.3981V44.2845H15.3592C15.409 44.2845 15.4646 44.2869 15.5262 44.2916C15.5901 44.294 15.654 44.3011 15.7179 44.3129C15.9854 44.3532 16.2115 44.4467 16.3962 44.5935C16.5832 44.7379 16.724 44.9202 16.8187 45.1404C16.9158 45.3605 16.9643 45.6044 16.9643 45.8719C16.9643 46.2578 16.8625 46.5927 16.6589 46.8768C16.4554 47.1609 16.1642 47.3397 15.7854 47.413L15.6043 47.4557H13.9069V49.3981H13.3848ZM16.4814 49.3981L15.4729 47.3172L15.9736 47.1254L17.0815 49.3981H16.4814ZM13.9069 46.9585H15.345C15.3877 46.9585 15.4374 46.9561 15.4942 46.9514C15.551 46.9467 15.6066 46.9384 15.6611 46.9265C15.8363 46.8887 15.9795 46.8165 16.0908 46.7099C16.2044 46.6034 16.2884 46.4767 16.3429 46.33C16.3997 46.1832 16.4281 46.0305 16.4281 45.8719C16.4281 45.7133 16.3997 45.5606 16.3429 45.4138C16.2884 45.2646 16.2044 45.1368 16.0908 45.0303C15.9795 44.9237 15.8363 44.8515 15.6611 44.8137C15.6066 44.8018 15.551 44.7947 15.4942 44.7923C15.4374 44.7876 15.3877 44.7852 15.345 44.7852H13.9069V46.9585ZM19.4882 49.5046C19.1141 49.5046 18.7898 49.4218 18.5152 49.2561C18.2429 49.0903 18.031 48.8572 17.8795 48.5565C17.728 48.2558 17.6523 47.9031 17.6523 47.4983C17.6523 47.0792 17.7268 46.717 17.876 46.4116C18.0251 46.1062 18.2346 45.8707 18.5045 45.705C18.7768 45.5393 19.0975 45.4564 19.4669 45.4564C19.8456 45.4564 20.1688 45.544 20.4363 45.7192C20.7038 45.892 20.9062 46.1406 21.0435 46.4649C21.1808 46.7892 21.2436 47.1763 21.2317 47.6261H20.6991V47.4415C20.6896 46.9443 20.5819 46.5691 20.3759 46.3158C20.1723 46.0625 19.874 45.9358 19.4811 45.9358C19.0691 45.9358 18.7531 46.0696 18.5329 46.3371C18.3151 46.6046 18.2062 46.9857 18.2062 47.4805C18.2062 47.9635 18.3151 48.3387 18.5329 48.6062C18.7531 48.8714 19.0644 49.0039 19.4669 49.0039C19.7415 49.0039 19.9806 48.9412 20.1842 48.8157C20.3901 48.6879 20.5523 48.5044 20.6707 48.2653L21.1572 48.4535C21.0057 48.7873 20.7819 49.0465 20.486 49.2312C20.1925 49.4135 19.8598 49.5046 19.4882 49.5046ZM18.0216 47.6261V47.1893H20.9512V47.6261H18.0216ZM24.1078 49.3981C23.8924 49.4431 23.6793 49.4608 23.4686 49.4514C23.2603 49.4419 23.0733 49.3969 22.9076 49.3164C22.7442 49.2359 22.6199 49.1105 22.5347 48.94C22.4661 48.798 22.4282 48.6547 22.4211 48.5103C22.4163 48.3636 22.414 48.1967 22.414 48.0096V44.4976H22.9324V47.9883C22.9324 48.1493 22.9336 48.2842 22.936 48.3931C22.9407 48.4997 22.9656 48.5944 23.0106 48.6772C23.0958 48.8358 23.2307 48.9305 23.4154 48.9613C23.6024 48.9921 23.8332 48.985 24.1078 48.94V49.3981ZM21.5937 46.0104V45.5629H24.1078V46.0104H21.5937ZM26.3476 49.5046C25.9735 49.5046 25.6492 49.4218 25.3746 49.2561C25.1023 49.0903 24.8904 48.8572 24.7389 48.5565C24.5874 48.2558 24.5117 47.9031 24.5117 47.4983C24.5117 47.0792 24.5862 46.717 24.7354 46.4116C24.8845 46.1062 25.094 45.8707 25.3639 45.705C25.6362 45.5393 25.957 45.4564 26.3263 45.4564C26.7051 45.4564 27.0282 45.544 27.2957 45.7192C27.5632 45.892 27.7656 46.1406 27.903 46.4649C28.0403 46.7892 28.103 47.1763 28.0912 47.6261H27.5585V47.4415C27.549 46.9443 27.4413 46.5691 27.2353 46.3158C27.0318 46.0625 26.7335 45.9358 26.3405 45.9358C25.9286 45.9358 25.6125 46.0696 25.3923 46.3371C25.1745 46.6046 25.0656 46.9857 25.0656 47.4805C25.0656 47.9635 25.1745 48.3387 25.3923 48.6062C25.6125 48.8714 25.9238 49.0039 26.3263 49.0039C26.6009 49.0039 26.84 48.9412 27.0436 48.8157C27.2496 48.6879 27.4117 48.5044 27.5301 48.2653L28.0166 48.4535C27.8651 48.7873 27.6414 49.0465 27.3454 49.2312C27.0519 49.4135 26.7193 49.5046 26.3476 49.5046ZM24.881 47.6261V47.1893H27.8106V47.6261H24.881ZM31.545 49.3981V47.4415C31.545 47.2284 31.5249 47.0331 31.4847 46.8555C31.4444 46.6756 31.3793 46.5194 31.2894 46.3868C31.2018 46.2518 31.0869 46.1477 30.9449 46.0743C30.8052 46.0009 30.6348 45.9642 30.4335 45.9642C30.2489 45.9642 30.0855 45.9962 29.9435 46.0601C29.8038 46.124 29.6854 46.2163 29.5884 46.3371C29.4937 46.4554 29.4215 46.5998 29.3718 46.7703C29.3221 46.9408 29.2972 47.1349 29.2972 47.3527L28.9279 47.271C28.9279 46.878 28.9965 46.5478 29.1338 46.2803C29.2712 46.0127 29.4605 45.8103 29.702 45.673C29.9435 45.5357 30.2205 45.4671 30.533 45.4671C30.7626 45.4671 30.9627 45.5026 31.1331 45.5736C31.3059 45.6446 31.4515 45.7405 31.5699 45.8612C31.6906 45.982 31.7877 46.1205 31.8611 46.2767C31.9345 46.4306 31.9877 46.5951 32.0209 46.7703C32.054 46.9431 32.0706 47.1159 32.0706 47.2888V49.3981H31.545ZM28.7716 49.3981V45.5629H29.2439V46.5075H29.2972V49.3981H28.7716ZM35.0801 49.3981C34.8647 49.4431 34.6516 49.4608 34.4409 49.4514C34.2326 49.4419 34.0456 49.3969 33.8799 49.3164C33.7165 49.2359 33.5922 49.1105 33.507 48.94C33.4384 48.798 33.4005 48.6547 33.3934 48.5103C33.3886 48.3636 33.3863 48.1967 33.3863 48.0096V44.4976H33.9047V47.9883C33.9047 48.1493 33.9059 48.2842 33.9083 48.3931C33.913 48.4997 33.9379 48.5944 33.9829 48.6772C34.0681 48.8358 34.203 48.9305 34.3877 48.9613C34.5747 48.9921 34.8055 48.985 35.0801 48.94V49.3981ZM32.566 46.0104V45.5629H35.0801V46.0104H32.566ZM35.9068 44.835V44.249H36.4288V44.835H35.9068ZM35.9068 49.3981V45.5629H36.4288V49.3981H35.9068ZM39.0949 49.5046C38.7138 49.5046 38.3882 49.4182 38.1184 49.2454C37.8485 49.0726 37.6413 48.8335 37.4969 48.5281C37.3525 48.2227 37.2803 47.8723 37.2803 47.477C37.2803 47.0745 37.3537 46.7218 37.5005 46.4187C37.6473 46.1157 37.8556 45.8802 38.1255 45.7121C38.3977 45.5416 38.7209 45.4564 39.0949 45.4564C39.4784 45.4564 39.8051 45.5428 40.075 45.7156C40.3473 45.8861 40.5544 46.124 40.6965 46.4294C40.8409 46.7324 40.9131 47.0816 40.9131 47.477C40.9131 47.8794 40.8409 48.2333 40.6965 48.5387C40.552 48.8418 40.3437 49.0785 40.0715 49.249C39.7992 49.4194 39.4737 49.5046 39.0949 49.5046ZM39.0949 49.0039C39.521 49.0039 39.8383 48.8631 40.0466 48.5814C40.2549 48.2973 40.3591 47.9291 40.3591 47.477C40.3591 47.013 40.2538 46.6436 40.0431 46.369C39.8347 46.0944 39.5187 45.9571 39.0949 45.9571C38.8085 45.9571 38.5717 46.0222 38.3847 46.1524C38.2 46.2803 38.0615 46.459 37.9692 46.6886C37.8793 46.9159 37.8343 47.1787 37.8343 47.477C37.8343 47.9386 37.9408 48.3091 38.1539 48.5885C38.3669 48.8654 38.6806 49.0039 39.0949 49.0039ZM44.4663 49.3981V47.4415C44.4663 47.2284 44.4461 47.0331 44.4059 46.8555C44.3656 46.6756 44.3005 46.5194 44.2106 46.3868C44.123 46.2518 44.0082 46.1477 43.8661 46.0743C43.7265 46.0009 43.556 45.9642 43.3548 45.9642C43.1701 45.9642 43.0068 45.9962 42.8647 46.0601C42.725 46.124 42.6067 46.2163 42.5096 46.3371C42.4149 46.4554 42.3427 46.5998 42.293 46.7703C42.2433 46.9408 42.2184 47.1349 42.2184 47.3527L41.8491 47.271C41.8491 46.878 41.9178 46.5478 42.0551 46.2803C42.1924 46.0127 42.3818 45.8103 42.6232 45.673C42.8647 45.5357 43.1417 45.4671 43.4542 45.4671C43.6838 45.4671 43.8839 45.5026 44.0543 45.5736C44.2272 45.6446 44.3727 45.7405 44.4911 45.8612C44.6119 45.982 44.7089 46.1205 44.7823 46.2767C44.8557 46.4306 44.909 46.5951 44.9421 46.7703C44.9753 46.9431 44.9918 47.1159 44.9918 47.2888V49.3981H44.4663ZM41.6929 49.3981V45.5629H42.1652V46.5075H42.2184V49.3981H41.6929Z" fill="#342D53"/>
<path opacity="0.6" d="M64.6765 47.3981V44.5942L64.081 44.9524V44.5898L64.6765 44.2338H65.0039V47.3981H64.6765ZM67.2306 47.3981V46.785H65.7495V46.4774L66.8086 44.2338H67.1712L66.1121 46.4774H67.2306V45.5545H67.5558V46.4774H67.9008V46.785H67.5558V47.3981H67.2306ZM68.4053 47.3981V47.0223H68.7811V47.3981H68.4053ZM69.6289 47.3981L70.7935 44.5481H69.3278V44.2338H71.1385V44.5481L69.9761 47.3981H69.6289ZM71.9733 47.3981L71.7536 47.1784L74.7047 44.2338L74.9244 44.4514L71.9733 47.3981ZM74.2652 47.464C74.1202 47.464 73.9876 47.4289 73.8675 47.3585C73.7488 47.2868 73.6536 47.1915 73.5818 47.0729C73.51 46.9528 73.4741 46.8195 73.4741 46.673C73.4741 46.5294 73.5108 46.3975 73.584 46.2774C73.6573 46.1573 73.754 46.0613 73.8741 45.9896C73.9942 45.9178 74.1246 45.8819 74.2652 45.8819C74.4102 45.8819 74.5428 45.9178 74.6629 45.9896C74.7831 46.0599 74.8783 46.1551 74.9486 46.2752C75.0204 46.3939 75.0563 46.5265 75.0563 46.673C75.0563 46.8195 75.0204 46.9528 74.9486 47.0729C74.8783 47.1915 74.7831 47.2868 74.6629 47.3585C74.5428 47.4289 74.4102 47.464 74.2652 47.464ZM74.2652 47.1718C74.3546 47.1718 74.4373 47.1491 74.5135 47.1036C74.5897 47.0582 74.6505 46.9982 74.6959 46.9235C74.7413 46.8473 74.764 46.7638 74.764 46.673C74.764 46.5821 74.7413 46.4994 74.6959 46.4246C74.6505 46.3485 74.5897 46.2877 74.5135 46.2423C74.4373 46.1969 74.3546 46.1741 74.2652 46.1741C74.1744 46.1741 74.0909 46.1969 74.0147 46.2423C73.94 46.2877 73.8792 46.3485 73.8323 46.4246C73.7869 46.4994 73.7642 46.5821 73.7642 46.673C73.7642 46.7638 73.7869 46.8473 73.8323 46.9235C73.8792 46.9982 73.94 47.0582 74.0147 47.1036C74.0909 47.1491 74.1744 47.1718 74.2652 47.1718ZM72.4128 45.75C72.2678 45.75 72.1352 45.7149 72.0151 45.6446C71.8949 45.5728 71.799 45.4776 71.7272 45.3589C71.6569 45.2388 71.6217 45.1055 71.6217 44.959C71.6217 44.8154 71.6584 44.6836 71.7316 44.5634C71.8048 44.4433 71.9015 44.3474 72.0217 44.2756C72.1418 44.2038 72.2722 44.1679 72.4128 44.1679C72.5578 44.1679 72.6897 44.2038 72.8083 44.2756C72.9285 44.3459 73.0244 44.4411 73.0962 44.5612C73.168 44.6799 73.2039 44.8125 73.2039 44.959C73.2039 45.1055 73.168 45.2388 73.0962 45.3589C73.0244 45.4776 72.9285 45.5728 72.8083 45.6446C72.6897 45.7149 72.5578 45.75 72.4128 45.75ZM72.4128 45.4578C72.5036 45.4578 72.5864 45.4351 72.6611 45.3897C72.7373 45.3443 72.7981 45.2842 72.8435 45.2095C72.8889 45.1333 72.9116 45.0498 72.9116 44.959C72.9116 44.8681 72.8889 44.7854 72.8435 44.7107C72.7981 44.6345 72.7373 44.5737 72.6611 44.5283C72.5864 44.4829 72.5036 44.4602 72.4128 44.4602C72.322 44.4602 72.2385 44.4829 72.1623 44.5283C72.0876 44.5737 72.0275 44.6345 71.9821 44.7107C71.9367 44.7854 71.914 44.8681 71.914 44.959C71.914 45.0498 71.9367 45.1333 71.9821 45.2095C72.0275 45.2842 72.0876 45.3443 72.1623 45.3897C72.2385 45.4351 72.322 45.4578 72.4128 45.4578ZM56.4994 50.5744V50.2119H56.8224V50.5744H56.4994ZM56.4994 53.3981V51.0249H56.8224V53.3981H56.4994ZM59.1952 53.3981V52.1873C59.1952 52.0555 59.1827 51.9346 59.1578 51.8248C59.1329 51.7134 59.0927 51.6167 59.037 51.5347C58.9828 51.4512 58.9117 51.3867 58.8238 51.3413C58.7374 51.2959 58.6319 51.2732 58.5074 51.2732C58.3931 51.2732 58.2921 51.293 58.2042 51.3325C58.1177 51.3721 58.0445 51.4292 57.9844 51.5039C57.9258 51.5772 57.8812 51.6665 57.8504 51.772C57.8196 51.8775 57.8042 51.9976 57.8042 52.1324L57.5757 52.0819C57.5757 51.8387 57.6182 51.6343 57.7032 51.4688C57.7881 51.3032 57.9053 51.178 58.0547 51.093C58.2042 51.0081 58.3756 50.9656 58.5689 50.9656C58.711 50.9656 58.8348 50.9875 58.9403 51.0315C59.0472 51.0754 59.1373 51.1348 59.2106 51.2095C59.2853 51.2842 59.3454 51.3699 59.3908 51.4666C59.4362 51.5618 59.4691 51.6636 59.4897 51.772C59.5102 51.879 59.5204 51.9859 59.5204 52.0928V53.3981H59.1952ZM57.479 53.3981V51.0249H57.7713V51.6094H57.8042V53.3981H57.479ZM61.0622 53.464C60.8234 53.464 60.6213 53.4106 60.4557 53.3036C60.2902 53.1967 60.1642 53.0494 60.0778 52.8619C59.9928 52.673 59.9489 52.4561 59.9459 52.2115C59.9489 51.9625 59.9943 51.7442 60.0822 51.5567C60.1701 51.3677 60.2968 51.2212 60.4623 51.1172C60.6279 51.0117 60.8286 50.959 61.0644 50.959C61.3047 50.959 61.5134 51.0176 61.6907 51.1348C61.8694 51.252 61.9917 51.4124 62.0576 51.616L61.7412 51.7171C61.6855 51.575 61.5969 51.4651 61.4753 51.3875C61.3552 51.3084 61.2175 51.2688 61.0622 51.2688C60.8879 51.2688 60.7436 51.3091 60.6293 51.3897C60.5151 51.4688 60.4301 51.5794 60.3744 51.7215C60.3188 51.8636 60.2902 52.0269 60.2887 52.2115C60.2917 52.4957 60.3576 52.7242 60.4865 52.8971C60.6154 53.0685 60.8073 53.1542 61.0622 53.1542C61.2234 53.1542 61.3603 53.1176 61.4731 53.0443C61.5874 52.9696 61.6738 52.8612 61.7324 52.7191L62.0576 52.8158C61.9697 53.0267 61.8408 53.1879 61.6709 53.2992C61.501 53.4091 61.2981 53.464 61.0622 53.464ZM62.5112 53.3981V51.0249H62.8013V51.5962L62.7442 51.5215C62.7705 51.4512 62.805 51.3867 62.8474 51.3281C62.8899 51.2681 62.9361 51.219 62.9859 51.1809C63.0474 51.1267 63.1192 51.0857 63.2012 51.0579C63.2833 51.0286 63.366 51.0117 63.4495 51.0073C63.533 51.0015 63.6092 51.0073 63.6781 51.0249V51.3281C63.5916 51.3062 63.4971 51.301 63.3946 51.3128C63.292 51.3245 63.1976 51.3655 63.1111 51.4358C63.032 51.4973 62.9727 51.5713 62.9331 51.6578C62.8936 51.7427 62.8672 51.8335 62.854 51.9302C62.8408 52.0255 62.8343 52.1199 62.8343 52.2137V53.3981H62.5112ZM65.0562 53.464C64.8248 53.464 64.6241 53.4128 64.4541 53.3102C64.2857 53.2077 64.1545 53.0634 64.0608 52.8773C63.967 52.6913 63.9202 52.473 63.9202 52.2225C63.9202 51.9632 63.9663 51.7391 64.0586 51.5501C64.1509 51.3611 64.2805 51.2153 64.4475 51.1128C64.616 51.0102 64.8145 50.959 65.043 50.959C65.2774 50.959 65.4774 51.0132 65.6429 51.1216C65.8085 51.2285 65.9337 51.3823 66.0187 51.583C66.1036 51.7837 66.1425 52.0233 66.1351 52.3016H65.8055V52.1873C65.7997 51.8797 65.733 51.6475 65.6056 51.4907C65.4796 51.334 65.295 51.2556 65.0518 51.2556C64.7969 51.2556 64.6013 51.3384 64.4651 51.5039C64.3303 51.6695 64.2629 51.9053 64.2629 52.2115C64.2629 52.5103 64.3303 52.7425 64.4651 52.9081C64.6013 53.0722 64.794 53.1542 65.043 53.1542C65.213 53.1542 65.3609 53.1154 65.4869 53.0377C65.6144 52.9586 65.7147 52.8451 65.788 52.6971L66.089 52.8136C65.9952 53.0201 65.8568 53.1806 65.6737 53.2948C65.492 53.4076 65.2862 53.464 65.0562 53.464ZM64.1487 52.3016V52.0313H65.9615V52.3016H64.1487ZM67.2589 53.464C67.0802 53.464 66.93 53.4318 66.8084 53.3673C66.6883 53.3029 66.5982 53.2172 66.5381 53.1102C66.4781 53.0033 66.448 52.8868 66.448 52.7609C66.448 52.6319 66.4737 52.5221 66.5249 52.4312C66.5777 52.3389 66.6487 52.2635 66.7381 52.2049C66.8289 52.1463 66.9337 52.1016 67.0523 52.0709C67.1724 52.0416 67.305 52.0159 67.4501 51.994C67.5965 51.9705 67.7394 51.9507 67.8785 51.9346C68.0192 51.917 68.1422 51.9002 68.2477 51.8841L68.1334 51.9544C68.1378 51.72 68.0924 51.5464 67.9972 51.4336C67.902 51.3208 67.7364 51.2644 67.5006 51.2644C67.338 51.2644 67.2003 51.301 67.0875 51.3743C66.9761 51.4475 66.8978 51.5633 66.8524 51.7215L66.5381 51.6292C66.5923 51.4168 66.7015 51.252 66.8655 51.1348C67.0296 51.0176 67.2428 50.959 67.505 50.959C67.7218 50.959 67.9056 51 68.0565 51.082C68.2089 51.1626 68.3166 51.2798 68.3796 51.4336C68.4089 51.5025 68.4279 51.5794 68.4367 51.6643C68.4455 51.7493 68.4499 51.8357 68.4499 51.9236V53.3981H68.162V52.8026L68.2455 52.8378C68.1649 53.0414 68.0397 53.1967 67.8698 53.3036C67.6998 53.4106 67.4962 53.464 67.2589 53.464ZM67.2962 53.185C67.4471 53.185 67.579 53.1579 67.6918 53.1036C67.8046 53.0494 67.8954 52.9755 67.9642 52.8817C68.0331 52.7865 68.0778 52.6795 68.0983 52.5609C68.1159 52.4847 68.1254 52.4012 68.1269 52.3104C68.1283 52.2181 68.1291 52.1492 68.1291 52.1038L68.2521 52.1676C68.1422 52.1822 68.0228 52.1969 67.8939 52.2115C67.7665 52.2261 67.6405 52.243 67.516 52.262C67.3929 52.2811 67.2816 52.3038 67.182 52.3302C67.1146 52.3492 67.0494 52.3763 66.9864 52.4115C66.9234 52.4452 66.8714 52.4906 66.8304 52.5477C66.7908 52.6048 66.7711 52.6759 66.7711 52.7609C66.7711 52.8297 66.7879 52.8964 66.8216 52.9608C66.8568 53.0253 66.9124 53.0787 66.9886 53.1212C67.0662 53.1637 67.1688 53.185 67.2962 53.185ZM69.9075 53.4618C69.6291 53.4618 69.3999 53.4018 69.2197 53.2816C69.041 53.1615 68.9311 52.9945 68.8901 52.7806L69.2197 52.7257C69.2548 52.8605 69.3347 52.9681 69.4592 53.0487C69.5852 53.1278 69.7405 53.1674 69.9251 53.1674C70.1052 53.1674 70.2473 53.13 70.3514 53.0553C70.4554 52.9791 70.5074 52.8759 70.5074 52.7455C70.5074 52.6722 70.4905 52.6129 70.4568 52.5675C70.4246 52.5206 70.3579 52.4774 70.2569 52.4378C70.1558 52.3983 70.0049 52.3514 69.8042 52.2972C69.5889 52.2386 69.4204 52.18 69.2988 52.1214C69.1772 52.0628 69.0908 51.9954 69.0395 51.9192C68.9882 51.8416 68.9626 51.7471 68.9626 51.6358C68.9626 51.501 69.0007 51.3831 69.0769 51.282C69.153 51.1794 69.2585 51.1003 69.3933 51.0447C69.5281 50.9875 69.6848 50.959 69.8635 50.959C70.0423 50.959 70.2019 50.9883 70.3426 51.0469C70.4847 51.104 70.5989 51.1846 70.6854 51.2886C70.7718 51.3926 70.8231 51.5135 70.8392 51.6512L70.5096 51.7105C70.4876 51.5713 70.418 51.4615 70.3008 51.3809C70.1851 51.2988 70.0379 51.2564 69.8591 51.2534C69.6907 51.249 69.5537 51.2813 69.4482 51.3501C69.3427 51.4175 69.29 51.5076 69.29 51.6204C69.29 51.6834 69.309 51.7376 69.3471 51.783C69.3852 51.827 69.4541 51.8687 69.5537 51.9083C69.6548 51.9478 69.7983 51.991 69.9844 52.0379C70.2027 52.0936 70.3741 52.1522 70.4986 52.2137C70.6231 52.2752 70.7117 52.3477 70.7645 52.4312C70.8172 52.5147 70.8436 52.618 70.8436 52.7411C70.8436 52.9652 70.7601 53.1417 70.5931 53.2707C70.4275 53.3981 70.199 53.4618 69.9075 53.4618ZM72.3351 53.464C72.1037 53.464 71.903 53.4128 71.733 53.3102C71.5646 53.2077 71.4335 53.0634 71.3397 52.8773C71.246 52.6913 71.1991 52.473 71.1991 52.2225C71.1991 51.9632 71.2452 51.7391 71.3375 51.5501C71.4298 51.3611 71.5594 51.2153 71.7265 51.1128C71.8949 51.0102 72.0934 50.959 72.322 50.959C72.5563 50.959 72.7563 51.0132 72.9218 51.1216C73.0874 51.2285 73.2126 51.3823 73.2976 51.583C73.3826 51.7837 73.4214 52.0233 73.4141 52.3016H73.0845V52.1873C73.0786 51.8797 73.0119 51.6475 72.8845 51.4907C72.7585 51.334 72.5739 51.2556 72.3307 51.2556C72.0758 51.2556 71.8803 51.3384 71.744 51.5039C71.6093 51.6695 71.5419 51.9053 71.5419 52.2115C71.5419 52.5103 71.6093 52.7425 71.744 52.9081C71.8803 53.0722 72.0729 53.1542 72.322 53.1542C72.4919 53.1542 72.6398 53.1154 72.7658 53.0377C72.8933 52.9586 72.9936 52.8451 73.0669 52.6971L73.3679 52.8136C73.2742 53.0201 73.1357 53.1806 72.9526 53.2948C72.771 53.4076 72.5651 53.464 72.3351 53.464ZM71.4276 52.3016V52.0313H73.2405V52.3016H71.4276ZM74.8224 53.464C74.6012 53.464 74.4122 53.4091 74.2555 53.2992C74.0988 53.1879 73.9786 53.0377 73.8951 52.8487C73.8116 52.6598 73.7699 52.4466 73.7699 52.2093C73.7699 51.9734 73.8109 51.761 73.8929 51.5721C73.9764 51.3831 74.0958 51.2337 74.2511 51.1238C74.4064 51.0139 74.5924 50.959 74.8092 50.959C75.0319 50.959 75.2194 51.0132 75.3718 51.1216C75.5241 51.23 75.6391 51.3787 75.7168 51.5677C75.7959 51.7552 75.8354 51.9691 75.8354 52.2093C75.8354 52.4452 75.7966 52.6583 75.719 52.8487C75.6413 53.0377 75.5271 53.1879 75.3762 53.2992C75.2253 53.4091 75.0407 53.464 74.8224 53.464ZM74.8554 53.163C75.0239 53.163 75.163 53.122 75.2729 53.0399C75.3828 52.9579 75.4648 52.8451 75.519 52.7015C75.5732 52.5565 75.6003 52.3924 75.6003 52.2093C75.6003 52.0233 75.5732 51.8592 75.519 51.7171C75.4648 51.5735 75.3828 51.4615 75.2729 51.3809C75.1645 51.3003 75.0275 51.26 74.862 51.26C74.6921 51.26 74.5514 51.3018 74.4401 51.3853C74.3287 51.4688 74.246 51.5823 74.1918 51.7259C74.139 51.8694 74.1127 52.0306 74.1127 52.2093C74.1127 52.3895 74.1398 52.5521 74.194 52.6971C74.2496 52.8407 74.3324 52.9542 74.4423 53.0377C74.5521 53.1212 74.6899 53.163 74.8554 53.163ZM75.6003 53.3981V51.6116H75.5652V50.2338H75.8904V53.3981H75.6003Z" fill="#342D53"/>
<path d="M19.3638 73.1035C18.5292 73.1035 17.7688 72.9026 17.0825 72.5007C16.4025 72.0927 15.8584 71.5424 15.4504 70.85C15.0485 70.1514 14.8476 69.3663 14.8476 68.4946V63.8671C14.8476 62.9706 15.0485 62.1731 15.4504 61.4745C15.8522 60.7697 16.3994 60.2164 17.0918 59.8146C17.7904 59.4065 18.5817 59.2025 19.4658 59.2025C20.2262 59.2025 20.931 59.3694 21.5802 59.7033C22.2355 60.0371 22.7703 60.5039 23.1845 61.1036L22.1366 61.966C21.8522 61.5209 21.4751 61.1654 21.0052 60.8996C20.5354 60.6337 20.0222 60.5008 19.4658 60.5008C18.8414 60.5008 18.285 60.6523 17.7966 60.9552C17.3082 61.2581 16.9249 61.6569 16.6467 62.1515C16.3685 62.6399 16.2294 63.1716 16.2294 63.7465V66.6584L15.8862 66.2689C16.2757 65.6569 16.7858 65.1623 17.4164 64.7852C18.0531 64.408 18.7456 64.2195 19.4936 64.2195C20.3221 64.2195 21.067 64.4173 21.7285 64.813C22.3901 65.2025 22.9156 65.7311 23.305 66.3987C23.6945 67.0664 23.8893 67.8145 23.8893 68.6429C23.8893 69.4652 23.6822 70.2132 23.2679 70.8871C22.8599 71.561 22.3128 72.0989 21.6265 72.5007C20.9465 72.9026 20.1922 73.1035 19.3638 73.1035ZM19.3638 71.7774C19.9449 71.7774 20.4735 71.6383 20.9496 71.3601C21.4318 71.0819 21.812 70.7047 22.0902 70.2287C22.3746 69.7527 22.5168 69.2241 22.5168 68.6429C22.5168 68.0618 22.3746 67.5332 22.0902 67.0572C21.812 66.5749 21.4349 66.1947 20.9588 65.9165C20.4828 65.6321 19.9542 65.4899 19.3731 65.4899C18.7919 65.4899 18.2633 65.6321 17.7873 65.9165C17.3113 66.1947 16.9311 66.5749 16.6467 67.0572C16.3685 67.5332 16.2294 68.0618 16.2294 68.6429C16.2294 69.2179 16.3685 69.7434 16.6467 70.2194C16.9249 70.6955 17.302 71.0757 17.778 71.3601C18.2541 71.6383 18.7827 71.7774 19.3638 71.7774ZM30.2902 73.1035C29.5977 73.1035 28.9579 72.9613 28.3705 72.6769C27.7832 72.3925 27.2825 71.9999 26.8682 71.4992C26.454 70.9984 26.1573 70.4234 25.978 69.7743L27.2855 69.4219C27.403 69.9041 27.6163 70.3214 27.9254 70.6738C28.2345 71.02 28.5962 71.289 29.0104 71.4806C29.4308 71.6723 29.8698 71.7681 30.3273 71.7681C30.9208 71.7681 31.4524 71.6259 31.9223 71.3415C32.3983 71.0509 32.7755 70.6676 33.0537 70.1916C33.3319 69.7156 33.471 69.1932 33.471 68.6244C33.471 68.0371 33.3257 67.5085 33.0351 67.0386C32.7445 66.5626 32.3612 66.1855 31.8852 65.9072C31.4092 65.629 30.8898 65.4899 30.3273 65.4899C29.6967 65.4899 29.1526 65.629 28.6951 65.9072C28.2376 66.1793 27.8729 66.5224 27.6008 66.9366L26.3582 66.4173L26.7662 59.4714H33.8975V60.779H27.369L28.046 60.1391L27.6843 66.0649L27.3412 65.6105C27.7245 65.1716 28.1882 64.8284 28.7322 64.5811C29.2763 64.3338 29.8481 64.2102 30.4478 64.2102C31.2701 64.2102 32.0119 64.408 32.6734 64.8037C33.335 65.1932 33.8605 65.7218 34.2499 66.3895C34.6394 67.0572 34.8342 67.8021 34.8342 68.6244C34.8342 69.4405 34.6271 70.1885 34.2128 70.8686C33.7986 71.5424 33.2484 72.0834 32.5622 72.4914C31.8759 72.8995 31.1186 73.1035 30.2902 73.1035ZM38.3516 72.8253L37.4242 71.8979L49.8785 59.4714L50.8059 60.3895L38.3516 72.8253ZM48.0238 73.1035C47.4118 73.1035 46.8523 72.9551 46.3453 72.6584C45.8446 72.3554 45.4427 71.9536 45.1398 71.4528C44.8368 70.9458 44.6854 70.3833 44.6854 69.765C44.6854 69.1592 44.8399 68.6027 45.1491 68.0958C45.4582 67.5888 45.8662 67.1839 46.3732 66.881C46.8801 66.578 47.4303 66.4266 48.0238 66.4266C48.6359 66.4266 49.1954 66.578 49.7023 66.881C50.2093 67.1777 50.6111 67.5796 50.9079 68.0865C51.2108 68.5873 51.3623 69.1468 51.3623 69.765C51.3623 70.3833 51.2108 70.9458 50.9079 71.4528C50.6111 71.9536 50.2093 72.3554 49.7023 72.6584C49.1954 72.9551 48.6359 73.1035 48.0238 73.1035ZM48.0238 71.8701C48.401 71.8701 48.7503 71.7743 49.0717 71.5826C49.3932 71.391 49.6498 71.1375 49.8414 70.8222C50.0331 70.5007 50.1289 70.1483 50.1289 69.765C50.1289 69.3817 50.0331 69.0324 49.8414 68.7171C49.6498 68.3956 49.3932 68.1391 49.0717 67.9474C48.7503 67.7558 48.401 67.6599 48.0238 67.6599C47.6405 67.6599 47.2881 67.7558 46.9667 67.9474C46.6514 68.1391 46.3948 68.3956 46.197 68.7171C46.0053 69.0324 45.9095 69.3817 45.9095 69.765C45.9095 70.1483 46.0053 70.5007 46.197 70.8222C46.3948 71.1375 46.6514 71.391 46.9667 71.5826C47.2881 71.7743 47.6405 71.8701 48.0238 71.8701ZM40.2063 65.8702C39.5942 65.8702 39.0347 65.7218 38.5278 65.425C38.0208 65.1221 37.6159 64.7202 37.3129 64.2195C37.0162 63.7125 36.8678 63.1499 36.8678 62.5317C36.8678 61.9258 37.0224 61.3694 37.3315 60.8625C37.6406 60.3555 38.0486 59.9506 38.5556 59.6476C39.0625 59.3447 39.6128 59.1932 40.2063 59.1932C40.8183 59.1932 41.3747 59.3447 41.8755 59.6476C42.3825 59.9444 42.7874 60.3462 43.0903 60.8532C43.3933 61.354 43.5447 61.9135 43.5447 62.5317C43.5447 63.1499 43.3933 63.7125 43.0903 64.2195C42.7874 64.7202 42.3825 65.1221 41.8755 65.425C41.3747 65.7218 40.8183 65.8702 40.2063 65.8702ZM40.2063 64.6368C40.5896 64.6368 40.9389 64.541 41.2542 64.3493C41.5757 64.1576 41.8322 63.9042 42.0239 63.5889C42.2155 63.2674 42.3114 62.915 42.3114 62.5317C42.3114 62.1484 42.2155 61.7991 42.0239 61.4838C41.8322 61.1623 41.5757 60.9057 41.2542 60.7141C40.9389 60.5224 40.5896 60.4266 40.2063 60.4266C39.823 60.4266 39.4706 60.5224 39.1491 60.7141C38.8338 60.9057 38.5803 61.1623 38.3887 61.4838C38.197 61.7991 38.1012 62.1484 38.1012 62.5317C38.1012 62.915 38.197 63.2674 38.3887 63.5889C38.5803 63.9042 38.8338 64.1576 39.1491 64.3493C39.4706 64.541 39.823 64.6368 40.2063 64.6368Z" fill="#00AA79"/>
</g>
<defs>
<filter id="filter0_f_137_254" x="96.4271" y="66.6269" width="33.6057" height="33.6056" filterUnits="userSpaceOnUse" color-interpolation-filters="sRGB">
<feFlood flood-opacity="0" result="BackgroundImageFix"/>
<feBlend mode="normal" in="SourceGraphic" in2="BackgroundImageFix" result="shape"/>
<feGaussianBlur stdDeviation="4.45" result="effect1_foregroundBlur_137_254"/>
</filter>
<filter id="filter1_d_137_254" x="115.009" y="110" width="83" height="51.5" filterUnits="userSpaceOnUse" color-interpolation-filters="sRGB">
<feFlood flood-opacity="0" result="BackgroundImageFix"/>
<feColorMatrix in="SourceAlpha" type="matrix" values="0 0 0 0 0 0 0 0 0 0 0 0 0 0 0 0 0 0 127 0" result="hardAlpha"/>
<feOffset dx="-2.5" dy="4"/>
<feGaussianBlur stdDeviation="1"/>
<feComposite in2="hardAlpha" operator="out"/>
<feColorMatrix type="matrix" values="0 0 0 0 0 0 0 0 0 0 0 0 0 0 0 0 0 0 0.03 0"/>
<feBlend mode="normal" in2="BackgroundImageFix" result="effect1_dropShadow_137_254"/>
<feBlend mode="normal" in="SourceGraphic" in2="effect1_dropShadow_137_254" result="shape"/>
</filter>
<filter id="filter2_d_137_254" x="106.824" y="1.52588e-05" width="62.3929" height="40.7504" filterUnits="userSpaceOnUse" color-interpolation-filters="sRGB">
<feFlood flood-opacity="0" result="BackgroundImageFix"/>
<feColorMatrix in="SourceAlpha" type="matrix" values="0 0 0 0 0 0 0 0 0 0 0 0 0 0 0 0 0 0 127 0" result="hardAlpha"/>
<feOffset dx="-3.5" dy="6"/>
<feGaussianBlur stdDeviation="0.731587"/>
<feComposite in2="hardAlpha" operator="out"/>
<feColorMatrix type="matrix" values="0 0 0 0 0 0 0 0 0 0 0 0 0 0 0 0 0 0 0.03 0"/>
<feBlend mode="normal" in2="BackgroundImageFix" result="effect1_dropShadow_137_254"/>
<feBlend mode="normal" in="SourceGraphic" in2="effect1_dropShadow_137_254" result="shape"/>
</filter>
<filter id="filter3_d_137_254" x="0.669035" y="37.7234" width="79.9125" height="48.113" filterUnits="userSpaceOnUse" color-interpolation-filters="sRGB">
<feFlood flood-opacity="0" result="BackgroundImageFix"/>
<feColorMatrix in="SourceAlpha" type="matrix" values="0 0 0 0 0 0 0 0 0 0 0 0 0 0 0 0 0 0 127 0" result="hardAlpha"/>
<feOffset dx="-6" dy="4.5"/>
<feGaussianBlur stdDeviation="0.918168"/>
<feComposite in2="hardAlpha" operator="out"/>
<feColorMatrix type="matrix" values="0 0 0 0 0 0 0 0 0 0 0 0 0 0 0 0 0 0 0.03 0"/>
<feBlend mode="normal" in2="BackgroundImageFix" result="effect1_dropShadow_137_254"/>
<feBlend mode="normal" in="SourceGraphic" in2="effect1_dropShadow_137_254" result="shape"/>
</filter>
<linearGradient id="paint0_linear_137_254" x1="281.734" y1="47.6807" x2="-30.0855" y2="291.154" gradientUnits="userSpaceOnUse">
<stop stop-color="#FFE6FE"/>
<stop offset="0.394108" stop-color="#625999"/>
<stop offset="1" stop-color="#FFE6FE"/>
</linearGradient>
</defs>
</svg>
